<?xml version="1.0" encoding="UTF-8" standalone="no"?>
<!-- Created with Inkscape (http://www.inkscape.org/) -->

<svg
   width="210mm"
   height="297mm"
   viewBox="0 0 210 297"
   version="1.1"
   id="svg2979"
   sodipodi:docname="speech_Act_Example.svg"
   inkscape:version="1.2 (dc2aeda, 2022-05-15)"
   xmlns:inkscape="http://www.inkscape.org/namespaces/inkscape"
   xmlns:sodipodi="http://sodipodi.sourceforge.net/DTD/sodipodi-0.dtd"
   xmlns="http://www.w3.org/2000/svg"
   xmlns:svg="http://www.w3.org/2000/svg">
  <sodipodi:namedview
     id="namedview2981"
     pagecolor="#000000"
     bordercolor="#000000"
     borderopacity="0.25"
     inkscape:showpageshadow="2"
     inkscape:pageopacity="0"
     inkscape:pagecheckerboard="0"
     inkscape:deskcolor="#d1d1d1"
     inkscape:document-units="mm"
     showgrid="false"
     inkscape:zoom="0.91686058"
     inkscape:cx="353.37979"
     inkscape:cy="503.34807"
     inkscape:current-layer="g4015" />
  <defs
     id="defs2976" />
  <g
     inkscape:label="Layer 1"
     inkscape:groupmode="layer"
     id="layer1">
    <g
       id="g4015"
       transform="translate(-317.64752,-242.50963)">
      <text
         xml:space="preserve"
         style="font-variant:normal;font-weight:bold;font-size:4.04883px;font-family:Charter;-inkscape-font-specification:CharterBT-Bold;writing-mode:lr-tb;fill:#ffff00;fill-opacity:1;fill-rule:nonzero;stroke:none;stroke-width:0.352778"
         id="text2098"
         x="335.56711"
         y="320.91348"><tspan
           x="335.56711 337.86685 339.98843 342.43799 343.88748 346.00909 348.45862 350.38589 353.68973 355.13922 357.22437 359.61725 370.17258 372.58569 374.73563 376.9382 380.54977 382.94263 384.17349 386.29507 458.60745 460.66022 462.9964 464.70096 466.6282"
           y="320.91348"
           sodipodi:role="line"
           id="tspan2096"
           style="fill:#ffff00;stroke-width:0.352778;fill-opacity:1">SentencetypeExamplesForce</tspan></text>
      <text
         xml:space="preserve"
         style="font-variant:normal;font-weight:normal;font-size:4.04883px;font-family:Charter;-inkscape-font-specification:CharterBT-Roman;writing-mode:lr-tb;fill:#ffff00;fill-opacity:1;fill-rule:nonzero;stroke:none;stroke-width:0.352778"
         id="text2106"
         x="335.56711"
         y="328.2569"><tspan
           x="335.56711 338.37296 340.36093 342.16672 343.3085 345.36127 346.90793 348.96069 350.31299 351.44669 353.44681 370.17258 372.14438 374.44815 375.99481 377.34714 378.48892 380.4769 383.22202 385.27478 386.82144 389.93906 391.99182 395.40497 397.45776 399.3526 400.4863 402.78604 404.90356 458.60745 460.66022 462.27975 463.89929 465.88727 467.43393 468.78625 469.91992 472.10223"
           y="328.2569"
           sodipodi:role="line"
           id="tspan2104"
           style="fill:#ffff00;stroke-width:0.352778;fill-opacity:1">DeclarativeTurtlesareamazing.assertion</tspan></text>
      <text
         xml:space="preserve"
         style="font-variant:normal;font-weight:normal;font-size:4.04883px;font-family:Charter;-inkscape-font-specification:CharterBT-Roman;writing-mode:lr-tb;fill:#ffff00;fill-opacity:1;fill-rule:nonzero;stroke:none;stroke-width:0.352778"
         id="text2110"
         x="370.17389"
         y="333.35312"><tspan
           x="370.17389 372.61536 375.737 377.91934 380.21909 382.50668 384.49466 387.17096 390.2926 392.57614 394.56415 396.11081 399.22839 401.70224 402.83594 407.37872 408.51242 410.13196 458.60876 460.7587 463.0625 465.05048 466.67001 468.02234 469.15601 471.33832"
           y="333.35312"
           sodipodi:role="line"
           id="tspan2108"
           style="fill:#ffff00;stroke-width:0.352778;fill-opacity:1">IwonderwhereKimis.question</tspan></text>
      <text
         xml:space="preserve"
         style="font-variant:normal;font-weight:normal;font-size:4.04883px;font-family:Charter;-inkscape-font-specification:CharterBT-Roman;writing-mode:lr-tb;fill:#ffff00;fill-opacity:1;fill-rule:nonzero;stroke:none;stroke-width:0.352778"
         id="text2114"
         x="370.17389"
         y="338.44934"><tspan
           x="370.17389 372.15378 374.33612 377.76953 379.38907 381.67261 383.85495 386.15875 387.30051 390.71774 394.13092 396.31323 398.31335 401.43097 403.43515 405.61749 407.92126 410.59756 412.77988 413.91357 415.71936 417.72354 419.52933 420.67108 422.65906 458.60876 460.2283 462.5321 464.64963 466.76718 468.75516 470.37469 471.72702 472.86069 475.04303"
           y="338.44934"
           sodipodi:role="line"
           id="tspan2112"
           style="fill:#ffff00;stroke-width:0.352778;fill-opacity:1">Youshouldmoveyourbicycle.suggestion</tspan></text>
      <text
         xml:space="preserve"
         style="font-variant:normal;font-weight:normal;font-size:4.04883px;font-family:Charter;-inkscape-font-specification:CharterBT-Roman;writing-mode:lr-tb;fill:#ffff00;fill-opacity:1;fill-rule:nonzero;stroke:none;stroke-width:0.352778"
         id="text2118"
         x="370.17389"
         y="343.54523"><tspan
           x="370.17389 372.15378 374.33612 377.76953 379.57532 381.62808 385.05746 387.341 389.39377 391.39389 394.51151 397.69391 399.49969 401.68201 403.86435 405.95758 407.09128 409.07925 458.60876 459.74243 462.04218 464.04233 465.17599 466.52829 468.58105 469.93338 471.06705 473.24939"
           y="343.54523"
           sodipodi:role="line"
           id="tspan2116"
           style="fill:#ffff00;stroke-width:0.352778;fill-opacity:1">Youcanhaveacookie.invitation</tspan></text>
      <text
         xml:space="preserve"
         style="font-variant:normal;font-weight:normal;font-size:4.04883px;font-family:Charter;-inkscape-font-specification:CharterBT-Roman;writing-mode:lr-tb;fill:#ffff00;fill-opacity:1;fill-rule:nonzero;stroke:none;stroke-width:0.352778"
         id="text2122"
         x="370.17389"
         y="348.64145"><tspan
           x="370.17389 371.48572 374.34015 377.46182 379.64413 381.94794 383.08972 386.88348 389.0658 392.55997 396.11484 397.73438 400.01794 402.07071 405.48389 408.97803 410.11169 412.91754 414.53708 416.71942 420.1326 422.12057 423.4729 425.75644 426.89011 429.18985 432.80951 435.09308 437.14584 439.37674 441.60767 443.59564 445.89539 447.88336"
           y="348.64145"
           sodipodi:role="line"
           id="tspan2120"
           style="fill:#ffff00;stroke-width:0.352778;fill-opacity:1">Itwouldbeashameifsomethinghappened</tspan></text>
      <text
         xml:space="preserve"
         style="font-variant:normal;font-weight:normal;font-size:4.04883px;font-family:Charter;-inkscape-font-specification:CharterBT-Roman;writing-mode:lr-tb;fill:#ffff00;fill-opacity:1;fill-rule:nonzero;stroke:none;stroke-width:0.352778"
         id="text2126"
         x="370.17389"
         y="353.73767"><tspan
           x="370.17389 371.52621 374.83817 376.84235 379.02469 381.32846 384.00476 385.6243 386.97659 389.15894 390.7056 392.69357"
           y="353.73767"
           sodipodi:role="line"
           id="tspan2124"
           style="fill:#ffff00;stroke-width:0.352778;fill-opacity:1">toyourstore.</tspan></text>
      <text
         xml:space="preserve"
         style="font-variant:normal;font-weight:normal;font-size:4.04883px;font-family:Charter;-inkscape-font-specification:CharterBT-Roman;writing-mode:lr-tb;fill:#ffff00;fill-opacity:1;fill-rule:nonzero;stroke:none;stroke-width:0.352778"
         id="text2130"
         x="458.60895"
         y="348.64145"><tspan
           x="458.60895 459.96124 462.24481 463.79147 465.77945 467.83221"
           y="348.64145"
           sodipodi:role="line"
           id="tspan2128"
           style="fill:#ffff00;stroke-width:0.352778;fill-opacity:1">threat</tspan></text>
      <text
         xml:space="preserve"
         style="font-variant:normal;font-weight:normal;font-size:4.04883px;font-family:Charter;-inkscape-font-specification:CharterBT-Roman;writing-mode:lr-tb;fill:#ffff00;fill-opacity:1;fill-rule:nonzero;stroke:none;stroke-width:0.352778"
         id="text2134"
         x="335.56711"
         y="360.95059"><tspan
           x="335.56711 336.87894 339.17868 340.53101 342.51898 344.06564 345.6123 347.79462 349.91217 351.96494 353.31723 354.45093 356.45105 370.17258 371.48441 374.23358 375.58588 377.76822 380.05582 382.10858 385.24237 387.21417 389.51797 391.50595 393.12549 395.41309 397.46585 399.47003 458.60745 460.75739 463.06119 465.04916 466.6687 468.02103 469.15469 471.33701"
           y="360.95059"
           sodipodi:role="line"
           id="tspan2132"
           style="fill:#ffff00;fill-opacity:1;stroke-width:0.352778">InterrogativeIstodayTuesday?question</tspan></text>
      <text
         xml:space="preserve"
         style="font-variant:normal;font-weight:normal;font-size:4.04883px;font-family:Charter;-inkscape-font-specification:CharterBT-Roman;writing-mode:lr-tb;fill:#ffff00;fill-opacity:1;fill-rule:nonzero;stroke:none;stroke-width:0.352778"
         id="text2138"
         x="370.17389"
         y="366.04681"><tspan
           x="370.17389 373.93121 376.21478 378.26755 380.74948 383.03708 385.08984 388.22366 389.35733 392.10651 393.4588 395.64114 397.92874 399.98151 401.98566 458.60876 460.7587 463.0625 465.05048 466.67001 468.02234 469.15601 471.33832"
           y="366.04681"
           sodipodi:role="line"
           id="tspan2136"
           style="fill:#ffff00;fill-opacity:1;stroke-width:0.352778">Whatdayistoday?question</tspan></text>
      <text
         xml:space="preserve"
         style="font-variant:normal;font-weight:normal;font-size:4.04883px;font-family:Charter;-inkscape-font-specification:CharterBT-Roman;writing-mode:lr-tb;fill:#ffff00;fill-opacity:1;fill-rule:nonzero;stroke:none;stroke-width:0.352778"
         id="text2142"
         x="370.17389"
         y="371.1427"><tspan
           x="370.17389 373.93121 376.21478 378.26755 380.74948 382.93182 386.36118 388.34915 390.40192 391.94858 393.3009 396.71408 398.76685 400.31351 403.43112 405.4353 407.61761 411.05103 413.33862 415.52097 416.65463 418.95438 421.07193 458.60876 460.66153 462.46732 464.2731 466.57687 468.19641 470.24921 471.6015 472.7352 474.91751"
           y="371.1427"
           sodipodi:role="line"
           id="tspan2140"
           style="fill:#ffff00;fill-opacity:1;stroke-width:0.352778">Whatonearthareyoudoing?accusation</tspan></text>
      <text
         xml:space="preserve"
         style="font-variant:normal;font-weight:normal;font-size:4.04883px;font-family:Charter;-inkscape-font-specification:CharterBT-Roman;writing-mode:lr-tb;fill:#ffff00;fill-opacity:1;fill-rule:nonzero;stroke:none;stroke-width:0.352778"
         id="text2146"
         x="370.17389"
         y="376.23892"><tspan
           x="370.17389 372.97974 376.29172 378.29587 380.47821 383.91162 387.03329 389.08606 391.3858 393.86774 395.22006 398.53201 400.81555 402.86832 404.86844 407.98605 409.11972 410.92551 412.91351 414.20508 416.01086 417.55753 419.5455 421.59827 425.01144 458.60876 459.74243 462.04218 464.04233 465.17599 466.52829 468.58105 469.93338 471.06705 473.24939"
           y="376.23892"
           sodipodi:role="line"
           id="tspan2144"
           style="fill:#ffff00;fill-opacity:1;stroke-width:0.352778">Doyouwanttohaveice-cream?invitation</tspan></text>
      <text
         xml:space="preserve"
         style="font-variant:normal;font-weight:normal;font-size:4.04883px;font-family:Charter;-inkscape-font-specification:CharterBT-Roman;writing-mode:lr-tb;fill:#ffff00;fill-opacity:1;fill-rule:nonzero;stroke:none;stroke-width:0.352778"
         id="text2150"
         x="370.17389"
         y="381.33514"><tspan
           x="370.17389 372.73276 374.9151 377.2189 378.36066 381.77789 383.78207 385.96439 389.39783 391.68137 393.66934 394.81113 398.17166 401.58484 403.57281 458.60876 460.15543 462.1434 464.29333 466.59714 468.58511 470.20465"
           y="381.33514"
           sodipodi:role="line"
           id="tspan2148"
           style="fill:#ffff00;fill-opacity:1;stroke-width:0.352778">Couldyouhelpme?request</tspan></text>
      <text
         xml:space="preserve"
         style="font-variant:normal;font-weight:normal;font-size:4.04883px;font-family:Charter;-inkscape-font-specification:CharterBT-Roman;writing-mode:lr-tb;fill:#ffff00;fill-opacity:1;fill-rule:nonzero;stroke:none;stroke-width:0.352778"
         id="text2154"
         x="335.56711"
         y="390.32642"><tspan
           x="335.56711 336.87894 340.29211 342.52301 344.51102 346.05768 348.11044 349.46274 350.59644 352.59656 370.17258 373.67889 375.86121 377.86133 380.97894 382.98312 385.16547 387.46924 390.14554 392.32785 393.46155 395.26733 397.27151 399.0773 400.21906 402.20703 458.60745 460.41324 462.59555 466.00873 469.42191 471.47467 473.77441"
           y="390.32642"
           sodipodi:role="line"
           id="tspan2152"
           style="fill:#ffff00;fill-opacity:1;stroke-width:0.352778">ImperativeMoveyourbicycle!command</tspan></text>
      <text
         xml:space="preserve"
         style="font-variant:normal;font-weight:normal;font-size:4.04883px;font-family:Charter;-inkscape-font-specification:CharterBT-Roman;writing-mode:lr-tb;fill:#ffff00;fill-opacity:1;fill-rule:nonzero;stroke:none;stroke-width:0.352778"
         id="text2158"
         x="370.17389"
         y="395.42264"><tspan
           x="370.17389 373.16196 375.21472 377.21484 380.33246 383.51483 385.32062 387.50296 389.68527 391.77853 392.9122 394.90021 458.60876 459.74243 462.04218 464.04233 465.17599 466.52829 468.58105 469.93338 471.06705 473.24939"
           y="395.42264"
           sodipodi:role="line"
           id="tspan2156"
           style="fill:#ffff00;fill-opacity:1;stroke-width:0.352778">Haveacookie.invitation</tspan></text>
      <text
         xml:space="preserve"
         style="font-variant:normal;font-weight:normal;font-size:4.04883px;font-family:Charter;-inkscape-font-specification:CharterBT-Roman;writing-mode:lr-tb;fill:#ffff00;fill-opacity:1;fill-rule:nonzero;stroke:none;stroke-width:0.352778"
         id="text2162"
         x="370.17389"
         y="400.51852"><tspan
           x="370.17389 372.43317 373.57492 375.56293 377.61566 379.2352 382.35281 383.89948 385.95224 387.08594 389.38568 458.60876 460.83969 461.98145 463.96942"
           y="400.51852"
           sodipodi:role="line"
           id="tspan2160"
           style="fill:#ffff00;fill-opacity:1;stroke-width:0.352778">Pleaserain!plea</tspan></text>
      <text
         xml:space="preserve"
         style="font-variant:normal;font-weight:normal;font-size:4.04883px;font-family:Charter;-inkscape-font-specification:CharterBT-Roman;writing-mode:lr-tb;fill:#ffff00;fill-opacity:1;fill-rule:nonzero;stroke:none;stroke-width:0.352778"
         id="text2166"
         x="370.17389"
         y="405.61475"><tspan
           x="370.17389 372.9838 374.97177 377.45374 380.57538 382.56335 383.70514 385.97653 387.59607 389.77841 391.96072 394.26047 458.60876 461.73041 463.71841 464.86017 466.00195 467.29352 470.41519 471.54886 473.1684"
           y="405.61475"
           sodipodi:role="line"
           id="tspan2164"
           style="fill:#ffff00;fill-opacity:1;stroke-width:0.352778">Getwellsoon!well-wish</tspan></text>
      <text
         xml:space="preserve"
         style="font-variant:normal;font-weight:normal;font-size:4.04883px;font-family:Charter;-inkscape-font-specification:CharterBT-Roman;writing-mode:lr-tb;fill:#ffff00;fill-opacity:1;fill-rule:nonzero;stroke:none;stroke-width:0.352778"
         id="text2170"
         x="370.17389"
         y="410.71097"><tspan
           x="370.17389 372.14163 374.44543 375.9921 379.42145 380.96811 382.10181 384.21933 386.5029 388.98483 391.26837 393.25635 394.80301 396.79102 458.60876 460.15543 462.1434 464.29333 466.59714 468.58511 470.20465"
           y="410.71097"
           sodipodi:role="line"
           id="tspan2168"
           style="fill:#ffff00;fill-opacity:1;stroke-width:0.352778">Turnrighthere.request</tspan></text>
      <path
         style="fill:#ffff00;fill-opacity:1;stroke:#00ffff;stroke-width:0.2;stroke-linecap:round;stroke-linejoin:round;paint-order:markers stroke fill;stroke-dasharray:none"
         d="M 335.55679,322.94479 H 481.56861"
         id="path7363" />
      <path
         style="fill:#ffff00;fill-opacity:1;stroke:#00ffff;stroke-width:0.2;stroke-linecap:round;stroke-linejoin:round;paint-order:markers stroke fill;stroke-dasharray:none"
         d="m 365.62356,315.20343 v 99.21683"
         id="path7365" />
      <path
         style="fill:#ffff00;fill-opacity:1;stroke:#00ffff;stroke-width:0.2;stroke-linecap:round;stroke-linejoin:round;paint-order:markers stroke fill;stroke-dasharray:none"
         d="m 453.92761,315.20343 v 99.21683"
         id="path7367" />
    </g>
  </g>
</svg>
