<?xml version="1.0" encoding="UTF-8" standalone="no"?>
<!-- Created with Inkscape (http://www.inkscape.org/) -->

<svg
   xmlns:dc="http://purl.org/dc/elements/1.1/"
   xmlns:cc="http://creativecommons.org/ns#"
   xmlns:rdf="http://www.w3.org/1999/02/22-rdf-syntax-ns#"
   xmlns:svg="http://www.w3.org/2000/svg"
   xmlns="http://www.w3.org/2000/svg"
   xmlns:sodipodi="http://sodipodi.sourceforge.net/DTD/sodipodi-0.dtd"
   xmlns:inkscape="http://www.inkscape.org/namespaces/inkscape"
   version="1.1"
   id="svg815"
   xml:space="preserve"
   width="1122.5601"
   height="794.56"
   viewBox="0 0 1122.5601 794.56"
   sodipodi:docname="SQuAD - the Stanford Question Answering Dataset.svg"
   inkscape:version="0.92.4 (5da689c313, 2019-01-14)"><metadata
     id="metadata821"><rdf:RDF><cc:Work
         rdf:about=""><dc:format>image/svg+xml</dc:format><dc:type
           rdf:resource="http://purl.org/dc/dcmitype/StillImage" /><dc:title></dc:title></cc:Work></rdf:RDF></metadata><defs
     id="defs819"><clipPath
       clipPathUnits="userSpaceOnUse"
       id="clipPath831"><path
         d="M 120.83334,120.83337 H 3389.5835 V 2362.5004 H 120.83334 Z"
         id="path829"
         inkscape:connector-curvature="0"
         style="clip-rule:evenodd" /></clipPath><clipPath
       clipPathUnits="userSpaceOnUse"
       id="clipPath867"><path
         d="m 728.15491,1616.8612 v -478.3539 c -6e-5,-1.295 0.45776,-2.4005 1.37353,-3.3161 0.91571,-0.9157 2.02112,-1.3736 3.31623,-1.3736 H 1710.656 c 1.295,0 2.4004,0.4579 3.3162,1.3736 0.9156,0.9156 1.3734,2.0211 1.3735,3.3161 v 478.3539 c -10e-5,1.2949 -0.4579,2.4003 -1.3735,3.3161 -0.9158,0.9157 -2.0212,1.3736 -3.3162,1.3736 H 732.84467 c -1.29511,0 -2.40052,-0.4579 -3.31623,-1.3736 -0.91577,-0.9158 -1.37359,-2.0212 -1.37353,-3.3161 z"
         id="path865"
         inkscape:connector-curvature="0"
         style="clip-rule:evenodd" /></clipPath><clipPath
       clipPathUnits="userSpaceOnUse"
       id="clipPath913"><path
         d="m 1790.3816,2266.3904 h 35.1731 v 35.1731 h -35.1731 z"
         id="path911"
         inkscape:connector-curvature="0"
         style="clip-rule:evenodd" /></clipPath><clipPath
       clipPathUnits="userSpaceOnUse"
       id="clipPath927"><path
         d="m 2716.6057,2266.3904 h 35.1731 v 35.1731 h -35.1731 z"
         id="path925"
         inkscape:connector-curvature="0"
         style="clip-rule:evenodd" /></clipPath><clipPath
       clipPathUnits="userSpaceOnUse"
       id="clipPath941"><path
         d="m 1825.5547,2266.3904 h 891.051 v 35.1731 h -891.051 z"
         id="path939"
         inkscape:connector-curvature="0"
         style="clip-rule:evenodd" /></clipPath><clipPath
       clipPathUnits="userSpaceOnUse"
       id="clipPath953"><path
         d="m 2751.7788,1129.1279 h 35.1729 v 35.1731 h -35.1729 z"
         id="path951"
         inkscape:connector-curvature="0"
         style="clip-rule:evenodd" /></clipPath><clipPath
       clipPathUnits="userSpaceOnUse"
       id="clipPath967"><path
         d="m 2751.7788,2231.2173 h 35.1729 v 35.1731 h -35.1729 z"
         id="path965"
         inkscape:connector-curvature="0"
         style="clip-rule:evenodd" /></clipPath><clipPath
       clipPathUnits="userSpaceOnUse"
       id="clipPath981"><path
         d="m 2751.7788,1164.301 h 35.1729 v 269.6602 h -35.1729 z"
         id="path979"
         inkscape:connector-curvature="0"
         style="clip-rule:evenodd" /></clipPath><clipPath
       clipPathUnits="userSpaceOnUse"
       id="clipPath993"><path
         d="m 2751.7788,1433.9612 h 35.1729 v 797.2561 h -35.1729 z"
         id="path991"
         inkscape:connector-curvature="0"
         style="clip-rule:evenodd" /></clipPath><clipPath
       clipPathUnits="userSpaceOnUse"
       id="clipPath1005"><path
         d="m 2751.7788,1164.301 h 35.1729 v 541.6652 h -35.1729 z"
         id="path1003"
         inkscape:connector-curvature="0"
         style="clip-rule:evenodd" /></clipPath><clipPath
       clipPathUnits="userSpaceOnUse"
       id="clipPath1017"><path
         d="m 2751.7788,2266.3904 h 35.1729 v 35.1731 h -35.1729 z"
         id="path1015"
         inkscape:connector-curvature="0"
         style="clip-rule:evenodd" /></clipPath><clipPath
       clipPathUnits="userSpaceOnUse"
       id="clipPath1029"><path
         d="m 1790.3816,1129.1279 h 961.3972 v 1137.2625 h -961.3972 z"
         id="path1027"
         inkscape:connector-curvature="0"
         style="clip-rule:evenodd" /></clipPath><clipPath
       clipPathUnits="userSpaceOnUse"
       id="clipPath1288"><rect
         style="opacity:1;fill:#00ff00;fill-opacity:1;stroke:none;stroke-width:8.26771641;stroke-miterlimit:4;stroke-dasharray:none;stroke-dashoffset:0;stroke-opacity:1"
         id="rect1290"
         width="2239.0061"
         height="1547.2104"
         x="665.96069"
         y="835.32141"
         rx="11.811032"
         ry="11.811032" /></clipPath></defs><sodipodi:namedview
     pagecolor="#000000"
     bordercolor="#666666"
     borderopacity="1"
     objecttolerance="10"
     gridtolerance="10"
     guidetolerance="10"
     inkscape:pageopacity="0"
     inkscape:pageshadow="2"
     inkscape:window-width="1920"
     inkscape:window-height="1056"
     id="namedview817"
     showgrid="false"
     inkscape:zoom="1.5395876"
     inkscape:cx="564.9543"
     inkscape:cy="204.98768"
     inkscape:window-x="0"
     inkscape:window-y="24"
     inkscape:window-maximized="1"
     inkscape:current-layer="g823" /><g
     id="g823"
     inkscape:groupmode="layer"
     inkscape:label="SQuAD - the Stanford Question Answering Dataset"
     transform="matrix(0.31999998,0,0,0.31999998,0,1.6530666e-5)"><g
       id="g861"
       transform="translate(-156.41333,-64.833093)"
       style="fill:#ffffff;fill-opacity:1"><g
         id="g863"
         clip-path="url(#clipPath867)"
         style="fill:#ffffff;fill-opacity:1"><g
           id="g869"
           transform="matrix(2.344871,0,0,2.344871,120.83334,120.83337)"
           style="fill:#ffffff;fill-opacity:1"><text
             transform="translate(268.5,456)"
             style="font-variant:normal;font-weight:normal;font-size:14px;font-family:Lato;-inkscape-font-specification:Lato-Regular;writing-mode:lr-tb;fill:#ffffff;fill-opacity:1;fill-rule:nonzero;stroke:none"
             id="text873"><tspan
               x="0 7.3499684 12.403947 19.865915 26.893892 38.478844 42.132828 49.594795 57.476761 64.826729 68.256714 76.13868 83.600647 89.732628 93.386612 100.41459 105.29356 112.75553 116.40952 123.78048 130.82245 135.87643 143.33841 148.50439 156.38637 163.41435 166.78835 170.44234 177.0713 185.07928 196.66425 204.57422 212.44919 218.58118 223.67017 227.10016 235.10812 242.9901 246.64409 254.10606 261.98804 269.33801 272.76801 280.64996 288.11194 294.24393 297.49191 301.1459 312.21286 320.09482 327.55679 332.43576 339.89774 343.55173 348.64072 356.52267"
               y="0"
               sodipodi:role="line"
               id="tspan871">Steam engines are external combustion engines, where the</tspan></text>
<text
             transform="translate(268.5,477)"
             style="font-variant:normal;font-weight:normal;font-size:14px;font-family:Lato;-inkscape-font-specification:Lato-Regular;writing-mode:lr-tb;fill:#ffffff;fill-opacity:1;fill-rule:nonzero;stroke:none"
             id="text877"><tspan
               x="0 10.968941 18.976913 24.142891 31.32486 34.754845 42.63681 49.986778 53.640762 58.617744 61.99173 69.866692 73.296677 81.206642 84.860626 88.290611 94.422592 98.076576 104.20856 111.67052 119.58749 126.61547 131.66945 138.69743 143.75142 151.21339 154.86739 159.84438 164.72336 172.73132 184.31628 187.97028 193.05927 200.94124 208.40321 212.05721 218.68617 226.69415 238.27911 246.18909 254.06406 260.19604 265.28503 268.71503 276.72299 284.60495 288.25894 296.1759 301.05487 309.06284 316.97281 324.84778 331.60275 336.69174 342.82373 346.19772 349.85172 360.39368 368.40164 376.2836"
               y="0"
               sodipodi:role="line"
               id="tspan875">working fluid is separate from the combustion products. Non-</tspan></text>
<text
             transform="translate(268.5,498)"
             style="font-variant:normal;font-weight:normal;font-size:14px;font-family:Lato;-inkscape-font-specification:Lato-Regular;writing-mode:lr-tb;fill:#ffffff;fill-opacity:1;fill-rule:nonzero;stroke:none"
             id="text881"><tspan
               x="0 6.6289601 14.636932 26.221886 34.131851 42.006813 48.138794 53.227776 56.657761 64.665733 72.547699 76.201683 84.083649 91.545616 98.573593 103.66257 107.31656 113.44854 121.45651 129.33148 134.21046 140.83943 148.30141 154.4334 158.08739 164.21938 172.09435 178.84932 186.73129 190.38528 197.41327 203.54526 207.19925 213.33124 221.3392 224.7132 231.74118 236.90717 240.56116 248.47813 256.3811 267.35004 274.81201 279.41098 282.65897 286.31296 294.19492 302.06989 308.82486 312.19885 319.66083 326.68881 331.8548 335.50879 343.42575 351.32874 362.29767 369.75964 374.92563 378.57962 386.58759"
               y="0"
               sodipodi:role="line"
               id="tspan879">combustion heat sources such as solar power, nuclear power or</tspan></text>
<text
             transform="translate(268.5,519)"
             style="font-variant:normal;font-weight:normal;font-size:14px;font-family:Lato;-inkscape-font-specification:Lato-Regular;writing-mode:lr-tb;fill:#ffffff;fill-opacity:1;fill-rule:nonzero;stroke:none"
             id="text885"><tspan
               x="0 7.2379689 14.699937 22.581903 27.670885 35.552853 43.01482 48.180798 59.765751 66.793732 70.167717 73.821701 81.283669 89.165634 96.627602 101.63258 108.98255 116.26952 119.9235 131.50845 138.53644 145.82341 149.4774 157.38737 164.84935 168.50334 176.37831 182.5103 189.97227 197.88225 201.25624 204.91023 213.1282 221.01018 228.47215 232.12614 235.55614 243.46611 250.92809 257.95605 261.33005 264.98404 270.07303 277.95499 285.41696 290.58295 302.16791 310.17587 318.08585 325.3728 333.25476 340.28275 351.86771 355.2977 362.05267 365.70667 372.46164 379.55261 386.30759 389.68158"
               y="0"
               sodipodi:role="line"
               id="tspan883">geothermal energy may be used. The ideal thermodynamic cycle</tspan></text>
<text
             transform="translate(268.5,540)"
             style="font-variant:normal;font-weight:normal;font-size:14px;font-family:Lato;-inkscape-font-specification:Lato-Regular;writing-mode:lr-tb;fill:#ffffff;fill-opacity:1;fill-rule:nonzero;stroke:none"
             id="text889"><tspan
               x="0 7.8749623 14.006944 21.468912 29.378878 33.032864 38.086842 46.094814 49.748798 56.776775 64.658745 71.686722 75.060707 82.347672 88.612648 96.074615 99.7286 104.81758 112.69955 116.12953 122.26151 125.9155 133.83247 138.71146 146.71942 153.34839 160.81036 166.94235 173.07434 176.72833 180.15833 186.29031 189.94431 196.69928 203.72726 207.10126 210.47525 217.93723 225.8472 229.50119 234.59018 242.47215 249.93413 253.58812 262.3241 269.35208 277.23404 284.41602 287.84601 295.72797 303.18994 306.84393 313.59891 320.68988 327.44485 330.81885 338.28082 341.65482 345.30881 349.19379 357.07574 360.72974 365.81873 373.70068"
               y="0"
               sodipodi:role="line"
               id="tspan887">used to analyze this process is called the Rankine cycle. In the</tspan></text>
<text
             transform="translate(268.5,561)"
             style="font-variant:normal;font-weight:normal;font-size:14px;font-family:Lato;-inkscape-font-specification:Lato-Regular;writing-mode:lr-tb;fill:#ffffff;fill-opacity:1;fill-rule:nonzero;stroke:none"
             id="text893"><tspan
               x="0 6.7549672 13.845933 20.600901 23.974886 31.436853 34.684849 38.338833 49.321781 56.349758 61.403736 68.865707 74.031685 77.685669 81.115654 87.247635 90.901619 98.783585 106.24555 113.27353 118.32751 125.78947 133.69945 137.35344 144.38142 152.2634 160.17337 163.82736 168.91635 173.97034 180.99832 188.88029 195.01228 199.75827 207.76624 212.93222 224.51718 230.64917 234.30316 237.73315 245.51712 250.57111 258.57907 262.23306 268.36505 273.41904 280.88101 287.909 299.49396 303.14795 314.2149 317.6449 322.73389 330.61584 334.04584 341.9278 345.58179 352.60977 356.26376 364.17374 372.1817 375.61169 378.98569 386.44766"
               y="0"
               sodipodi:role="line"
               id="tspan891">cycle, water is heated and transforms into steam within a boiler</tspan></text>
<text
             transform="translate(268.5,582)"
             style="font-variant:normal;font-weight:normal;font-size:14px;font-family:Lato;-inkscape-font-specification:Lato-Regular;writing-mode:lr-tb;fill:#ffffff;fill-opacity:1;fill-rule:nonzero;stroke:none"
             id="text897"><tspan
               x="0 8.0079727 15.924942 23.386909 28.440887 35.468864 40.557846 43.987831 51.869797 59.219765 62.873749 69.901726 74.990707 78.644691 85.672668 89.326653 97.208618 100.6386 107.98857 115.87054 119.52452 127.44149 132.32047 139.78244 145.91443 152.04642 159.92139 164.80037 172.26234 175.63634 179.29033 193.78726 201.66924 209.13121 217.01318 220.66718 228.03815 235.08012 242.9971 250.02509 257.90704 265.81702 273.27899 281.18896 284.84296 289.93195 297.8139 302.69287 310.70084 318.57581 325.92578 333.80774 337.46173 345.37869 348.80869 354.94067 359.99466 368.00262 375.88458 382.01657 385.67056 393.67853"
               y="0"
               sodipodi:role="line"
               id="tspan895">operating at a high pressure. When expanded through pistons or</tspan></text>
<text
             transform="translate(268.5,603)"
             style="font-variant:normal;font-weight:normal;font-size:14px;font-family:Lato;-inkscape-font-specification:Lato-Regular;writing-mode:lr-tb;fill:#ffffff;fill-opacity:1;fill-rule:nonzero;stroke:none"
             id="text901"><tspan
               x="0 5.0889821 12.963944 18.129923 26.039888 29.469873 37.351841 44.813808 50.945789 54.193783 57.847767 69.432724 76.894691 83.649658 91.531624 98.559601 106.44157 109.87155 116.62652 123.6545 127.02848 130.68246 141.6514 149.65936 154.82535 162.00732 165.66132 169.09131 175.2233 178.87729 186.78726 194.79523 202.6772 210.13918 213.51317 217.16716 225.38513 233.26711 240.72908 244.38307 249.26205 256.72403 264.634 272.50897 279.13794 286.59991 294.50989 299.78085 307.69781 312.57678 320.03876 326.17075 332.30273 340.1777 345.05667 352.51865 356.17264 362.30463 367.35861 374.82059 381.84857"
               y="0"
               sodipodi:role="line"
               id="tspan899">turbines, mechanical work is done. The reduced-pressure steam</tspan></text>
<text
             transform="translate(268.5,624)"
             style="font-variant:normal;font-weight:normal;font-size:14px;font-family:Lato;-inkscape-font-specification:Lato-Regular;writing-mode:lr-tb;fill:#ffffff;fill-opacity:1;fill-rule:nonzero;stroke:none"
             id="text905"><tspan
               x="0 3.4299853 9.5619669 13.215951 18.304934 26.186899 33.648869 41.530834 45.184818 51.813778 59.821751 67.70372 75.613686 83.075653 90.957619 97.0896 104.55157 112.46153 116.11552 123.14349 131.02547 138.93544 142.58943 150.50641 158.38138 169.96634 177.88332 185.34529 193.25526 196.90926 204.81923 211.84721 218.60219 225.78416 229.43816 232.86815 240.65211 245.7061 253.71408 257.36807 262.45706 270.33902 277.80099 281.45499 289.36496 297.37292 300.80292 304.17691 311.63889 316.25186"
               y="0"
               sodipodi:role="line"
               id="tspan903">is then condensed and pumped back into the boiler.</tspan></text>
</g></g></g><g
       id="g1762"
       transform="translate(-218.75001,32.345122)"><text
         y="1095.5688"
         x="1816.1752"
         style="font-variant:normal;font-weight:bold;font-size:36.11101151px;font-family:Lato;-inkscape-font-specification:Lato-Bold;writing-mode:lr-tb;fill:#ffffff;fill-opacity:1;fill-rule:nonzero;stroke:none;stroke-width:2.34487104"
         id="text1045"><tspan
           style="stroke-width:2.34487104"
           x="1816.1752 1841.4028 1850.5349 1871.4319 1891.95 1911.1688 1920.1024 1949.2277 1958.5582 1972.1473 1992.6654 2001.5991 2020.4929 2039.9283 2060.4641 2074.0532 2094.5713 2114.0068 2127.6318 2158.0203 2176.4993 2185.6313 2194.5649 2213.0442 2233.5623 2254.2065 2263.1401 2283.6582 2304.1763 2321.7351 2330.8672 2350.3027 2368.7817 2380.9443 2389.5532 2398.4868 2427.6121 2448.1301 2466.6091 2480.1982 2489.1318 2498.4624 2514.4875 2523.4211 2541.9001 2550.8337 2571.3518 2591.8877 2605.4768 2623.9558 2644.6001 2653.7324"
           y="1095.5688"
           sodipodi:role="line"
           id="tspan1043">Along with geothermal and nuclear, what is a notable</tspan></text>
<text
         y="1144.8112"
         x="1816.1752"
         style="font-variant:normal;font-weight:bold;font-size:36.11101151px;font-family:Lato;-inkscape-font-specification:Lato-Bold;writing-mode:lr-tb;fill:#ffffff;fill-opacity:1;fill-rule:nonzero;stroke:none;stroke-width:2.34487104"
         id="text1049"><tspan
           style="stroke-width:2.34487104"
           x="1816.1752 1836.6932 1857.5902 1878.1083 1891.7334 1908.9673 1929.8643 1960.2524 1980.8969 2001.4149 2017.4399 2031.0291 2040.3596 2061.2566 2081.7747 2090.7083 2111.2263 2130.6619 2149.1409 2162.73 2171.6636 2187.6887 2208.5857 2229.1038 2242.2053 2259.4392 2277.9539"
           y="1144.8112"
           sodipodi:role="line"
           id="tspan1047">non-combustion heat source?</tspan></text>
<text
         y="1194.0535"
         x="1816.1752"
         style="font-style:italic;font-variant:normal;font-size:36.11101151px;font-family:Lato;-inkscape-font-specification:Lato-Italic;writing-mode:lr-tb;fill:#ffffff;fill-opacity:1;fill-rule:nonzero;stroke:none;stroke-width:2.34487104"
         id="text1053"><tspan
           style="stroke-width:2.34487104"
           x="1816.1752 1840.5725 1852.4109 1871.3049 1890.578 1909.869 1929.124 1937.7328 1954.3152 1966.8215 1986.0946 1999.0521 2018.3251 2026.934 2049.8699 2069.1609 2083.7605 2109.7639 2127.1963 2139.5945 2154.1938 2163.3262"
           y="1194.0535"
           sodipodi:role="line"
           id="tspan1051">Ground Truth Answers: </tspan></text>
<text
         y="1194.0535"
         x="2178.9341"
         style="font-variant:normal;font-weight:normal;font-size:36.11101151px;font-family:Lato;-inkscape-font-specification:Lato-Regular;writing-mode:lr-tb;fill:#ffffff;fill-opacity:1;fill-rule:nonzero;stroke:none;stroke-width:2.34487104"
         id="text1059"><tspan
           style="stroke-width:2.34487104"
           x="2178.9341 2194.7244 2215.3508 2224.0317 2242.1318"
           y="1194.0535"
           sodipodi:role="line"
           id="tspan1057">solar</tspan></text>
<text
         y="1194.0535"
         x="2278.8474"
         style="font-variant:normal;font-weight:normal;font-size:36.11101151px;font-family:Lato;-inkscape-font-specification:Lato-Regular;writing-mode:lr-tb;fill:#ffffff;fill-opacity:1;fill-rule:nonzero;stroke:none;stroke-width:2.34487104"
         id="text1065"><tspan
           style="stroke-width:2.34487104"
           x="2278.8474 2294.6379 2315.2642 2323.9453 2342.0454 2355.3457 2364.7485 2385.1404 2405.4958 2433.7546 2452.9736"
           y="1194.0535"
           sodipodi:role="line"
           id="tspan1063">solar power</tspan></text>
<path
         d="m 2482.1185,1163.5702 h 201.659 v 2.3448 h -201.659 z"
         style="fill:#ffffff;fill-opacity:1;fill-rule:nonzero;stroke:none;stroke-width:2.34487104"
         id="path1067"
         inkscape:connector-curvature="0" /><path
         d="m 2482.1185,1201.0881 h 201.659 v 2.3449 h -201.659 z"
         style="fill:#ffffff;fill-opacity:1;fill-rule:nonzero;stroke:none;stroke-width:2.34487104"
         id="path1069"
         inkscape:connector-curvature="0" /><path
         d="m 2482.1185,1163.5702 h 2.3449 v 39.8628 h -2.3449 z"
         style="fill:#ffffff;fill-opacity:1;fill-rule:nonzero;stroke:none;stroke-width:2.34487104"
         id="path1071"
         inkscape:connector-curvature="0" /><text
         y="1194.0535"
         x="2489.7026"
         style="font-variant:normal;font-weight:normal;font-size:36.11101151px;font-family:Lato;-inkscape-font-specification:Lato-Regular;writing-mode:lr-tb;fill:#ffffff;fill-opacity:1;fill-rule:nonzero;stroke:none;stroke-width:2.34487104"
         id="text1075"><tspan
           style="stroke-width:2.34487104"
           x="2489.7026 2505.4932 2526.1194 2534.8005 2552.9006 2566.2009 2575.6038 2595.9956 2616.3511 2644.6099 2663.8289 2675.6667"
           y="1194.0535"
           sodipodi:role="line"
           id="tspan1073">solar power,</tspan></text>
<path
         d="m 1816.1752,1212.8125 h 588.5626 v 2.3448 h -588.5626 z"
         style="fill:#ffffff;fill-opacity:1;fill-rule:nonzero;stroke:none;stroke-width:2.34487104"
         id="path1077"
         inkscape:connector-curvature="0" /><path
         d="m 1816.1752,1250.3304 h 588.5626 v 2.3449 h -588.5626 z"
         style="fill:#ffffff;fill-opacity:1;fill-rule:nonzero;stroke:none;stroke-width:2.34487104"
         id="path1079"
         inkscape:connector-curvature="0" /><path
         d="m 2402.3929,1212.8125 h 2.3449 v 39.8628 h -2.3449 z"
         style="fill:#ffffff;fill-opacity:1;fill-rule:nonzero;stroke:none;stroke-width:2.34487104"
         id="path1081"
         inkscape:connector-curvature="0" /><text
         y="1243.2958"
         x="1816.1752"
         style="font-variant:normal;font-weight:normal;font-size:36.11101151px;font-family:Lato;-inkscape-font-specification:Lato-Regular;writing-mode:lr-tb;fill:#ffffff;fill-opacity:1;fill-rule:nonzero;stroke:none;stroke-width:2.34487104"
         id="text1085"><tspan
           style="stroke-width:2.34487104"
           x="1816.1752 1836.4767 1856.7601 1874.1566 1882.8376 1902.0565 1920.1566 1933.457 1942.8597 1963.2515 1983.6069 2011.8658 2031.0847 2044.3851 2053.7878 2074.4143 2087.7146 2097.1174 2115.7585 2134.9775 2155.2788 2168.3806 2188.6821 2207.9011 2221.2014 2251.0483 2269.1484 2277.8296 2287.2324 2306.4512 2326.7527 2345.9717 2358.8567 2377.7869"
           y="1243.2958"
           sodipodi:role="line"
           id="tspan1083">nuclear power or geothermal energy</tspan></text>
<text
         y="1243.2958"
         x="2419.9795"
         style="font-variant:normal;font-weight:normal;font-size:36.11101151px;font-family:Lato;-inkscape-font-specification:Lato-Regular;writing-mode:lr-tb;fill:#ffffff;fill-opacity:1;fill-rule:nonzero;stroke:none;stroke-width:2.34487104"
         id="text1091"><tspan
           style="stroke-width:2.34487104"
           x="2419.9795 2435.77 2456.3962 2465.0774 2483.1775"
           y="1243.2958"
           sodipodi:role="line"
           id="tspan1089">solar</tspan></text>
<text
         y="1355.8496"
         x="1816.1752"
         style="font-variant:normal;font-weight:bold;font-size:36.11101151px;font-family:Lato;-inkscape-font-specification:Lato-Bold;writing-mode:lr-tb;fill:#ffffff;fill-opacity:1;fill-rule:nonzero;stroke:none;stroke-width:2.34487104"
         id="text1095"><tspan
           style="stroke-width:2.34487104"
           x="1816.1752 1853.9976 1874.5156 1892.9946 1906.5837 1915.5173 1924.848 1945.4923 1964.9277 1983.4069 1992.5389 2001.4725 2015.0616 2035.5797 2055.0151 2068.6404 2099.0286 2119.9255 2140.5698 2159.7708 2180.2888 2198.7678 2229.156 2238.4868 2256.0457 2264.9792 2282.5381 2301.1611 2318.72 2327.8521 2347.2874 2356.2212 2374.7002 2395.2183 2413.6973 2422.8293 2442.0303 2458.4521 2477.8875 2493.9126 2502.8462 2516.4353 2536.9534 2556.3887 2565.3225 2585.9849 2599.0864 2619.9834 2637.217 2656.6526 2672.6775"
           y="1355.8496"
           sodipodi:role="line"
           id="tspan1093">What ideal thermodynamic cycle analyzes the process</tspan></text>
<text
         y="1405.0919"
         x="1816.1752"
         style="font-variant:normal;font-weight:bold;font-size:36.11101151px;font-family:Lato;-inkscape-font-specification:Lato-Bold;writing-mode:lr-tb;fill:#ffffff;fill-opacity:1;fill-rule:nonzero;stroke:none;stroke-width:2.34487104"
         id="text1099"><tspan
           style="stroke-width:2.34487104"
           x="1816.1752 1836.296 1855.4968 1864.4304 1893.5557 1914.0737 1923.4043 1940.9631 1961.4812 1970.4148 1986.4398 1999.8845 2019.3199 2037.799 2068.1873 2077.1208 2096.5562 2117.0742 2136.2932 2145.6238 2166.1418 2185.5774 2201.6023 2210.5361 2239.3542 2260.2512 2273.8765 2293.3298"
           y="1405.0919"
           sodipodi:role="line"
           id="tspan1097">by which steam engines work?</tspan></text>
<text
         y="1454.3342"
         x="1816.1752"
         style="font-style:italic;font-variant:normal;font-size:36.11101151px;font-family:Lato;-inkscape-font-specification:Lato-Italic;writing-mode:lr-tb;fill:#ffffff;fill-opacity:1;fill-rule:nonzero;stroke:none;stroke-width:2.34487104"
         id="text1103"><tspan
           style="stroke-width:2.34487104"
           x="1816.1752 1840.5725 1852.4109 1871.3049 1890.578 1909.869 1929.124 1937.7328 1954.3152 1966.8215 1986.0946 1999.0521 2018.3251 2026.934 2049.8699 2069.1609 2083.7605 2109.7639 2127.1963 2139.5945 2154.1938 2163.3262"
           y="1454.3342"
           sodipodi:role="line"
           id="tspan1101">Ground Truth Answers: </tspan></text>
<text
         y="1454.3342"
         x="2178.9341"
         style="font-variant:normal;font-weight:normal;font-size:36.11101151px;font-family:Lato;-inkscape-font-specification:Lato-Regular;writing-mode:lr-tb;fill:#ffffff;fill-opacity:1;fill-rule:nonzero;stroke:none;stroke-width:2.34487104"
         id="text1109"><tspan
           style="stroke-width:2.34487104"
           x="2178.9341 2201.4368 2219.5369 2239.8384 2258.3354 2267.1609 2287.4624"
           y="1454.3342"
           sodipodi:role="line"
           id="tspan1107">Rankine</tspan></text>
<text
         y="1454.3342"
         x="2330.105"
         style="font-variant:normal;font-weight:normal;font-size:36.11101151px;font-family:Lato;-inkscape-font-specification:Lato-Regular;writing-mode:lr-tb;fill:#ffffff;fill-opacity:1;fill-rule:nonzero;stroke:none;stroke-width:2.34487104"
         id="text1115"><tspan
           style="stroke-width:2.34487104"
           x="2330.105 2352.6077 2370.708 2391.0095 2409.5066 2418.332 2438.6335 2457.8523 2467.2551 2484.6516 2502.9136 2520.3101 2528.9912"
           y="1454.3342"
           sodipodi:role="line"
           id="tspan1113">Rankine cycle</tspan></text>
<path
         d="m 2564.189,1423.8508 h 136.0025 v 2.3449 H 2564.189 Z"
         style="fill:#ffffff;fill-opacity:1;fill-rule:nonzero;stroke:none;stroke-width:2.34487104"
         id="path1117"
         inkscape:connector-curvature="0" /><path
         d="m 2564.189,1461.3688 h 136.0025 v 2.3448 H 2564.189 Z"
         style="fill:#ffffff;fill-opacity:1;fill-rule:nonzero;stroke:none;stroke-width:2.34487104"
         id="path1119"
         inkscape:connector-curvature="0" /><path
         d="m 2564.189,1423.8508 h 2.3449 v 39.8628 h -2.3449 z"
         style="fill:#ffffff;fill-opacity:1;fill-rule:nonzero;stroke:none;stroke-width:2.34487104"
         id="path1121"
         inkscape:connector-curvature="0" /><text
         y="1454.3342"
         x="2571.6267"
         style="font-variant:normal;font-weight:normal;font-size:36.11101151px;font-family:Lato;-inkscape-font-specification:Lato-Regular;writing-mode:lr-tb;fill:#ffffff;fill-opacity:1;fill-rule:nonzero;stroke:none;stroke-width:2.34487104"
         id="text1125"><tspan
           style="stroke-width:2.34487104"
           x="2571.6267 2594.1294 2612.2295 2632.5312 2651.0283 2659.8535 2680.1553"
           y="1454.3342"
           sodipodi:role="line"
           id="tspan1123">Rankine</tspan></text>
<path
         d="m 1816.1752,1473.0931 h 89.1051 v 2.3449 h -89.1051 z"
         style="fill:#ffffff;fill-opacity:1;fill-rule:nonzero;stroke:none;stroke-width:2.34487104"
         id="path1127"
         inkscape:connector-curvature="0" /><path
         d="m 1816.1752,1510.6111 h 89.1051 v 2.3448 h -89.1051 z"
         style="fill:#ffffff;fill-opacity:1;fill-rule:nonzero;stroke:none;stroke-width:2.34487104"
         id="path1129"
         inkscape:connector-curvature="0" /><path
         d="m 1902.9354,1473.0931 h 2.3449 v 39.8628 h -2.3449 z"
         style="fill:#ffffff;fill-opacity:1;fill-rule:nonzero;stroke:none;stroke-width:2.34487104"
         id="path1131"
         inkscape:connector-curvature="0" /><text
         y="1503.5765"
         x="1816.1752"
         style="font-variant:normal;font-weight:normal;font-size:36.11101151px;font-family:Lato;-inkscape-font-specification:Lato-Regular;writing-mode:lr-tb;fill:#ffffff;fill-opacity:1;fill-rule:nonzero;stroke:none;stroke-width:2.34487104"
         id="text1135"><tspan
           style="stroke-width:2.34487104"
           x="1816.1752 1833.5715 1851.8337 1869.2301 1877.9111"
           y="1503.5765"
           sodipodi:role="line"
           id="tspan1133">cycle</tspan></text>
<text
         y="1503.5765"
         x="1920.5586"
         style="font-variant:normal;font-weight:normal;font-size:36.11101151px;font-family:Lato;-inkscape-font-specification:Lato-Regular;writing-mode:lr-tb;fill:#ffffff;fill-opacity:1;fill-rule:nonzero;stroke:none;stroke-width:2.34487104"
         id="text1141"><tspan
           style="stroke-width:2.34487104"
           x="1920.5586 1943.0614 1961.1615 1981.463 1999.9602 2008.7855 2029.087 2048.3059 2057.7087 2075.105 2093.3672 2110.7637 2119.4448"
           y="1503.5765"
           sodipodi:role="line"
           id="tspan1139">Rankine cycle</tspan></text>
<text
         y="1616.1302"
         x="1816.1752"
         style="font-variant:normal;font-weight:bold;font-size:36.11101151px;font-family:Lato;-inkscape-font-specification:Lato-Bold;writing-mode:lr-tb;fill:#ffffff;fill-opacity:1;fill-rule:nonzero;stroke:none;stroke-width:2.34487104"
         id="text1145"><tspan
           style="stroke-width:2.34487104"
           x="1816.1752 1826.7688 1847.2869 1856.2205 1869.8096 1890.3276 1909.7631 1918.6967 1941.7769 1960.2559 1980.7739 2000.2274 2009.558 2030.076 2049.5115 2058.4451 2076.0039 2094.627 2112.1858 2121.3179 2140.7532 2149.3621 2158.2959 2187.4209 2207.939 2226.4182 2240.0071 2248.9409 2269.5852 2290.4822 2309.9175 2325.9426 2334.8762 2363.7668 2382.2458 2395.6904 2415.126 2428.751 2437.6846 2451.2737 2471.7917 2485.417 2505.9351 2514.8687 2524.1992 2544.4646 2557.9092 2578.8062 2587.7397 2616.865 2637.3831 2656.8184"
           y="1616.1302"
           sodipodi:role="line"
           id="tspan1143">In the Rankine cycle, what does water turn into when</tspan></text>
<text
         y="1665.3726"
         x="1816.1752"
         style="font-variant:normal;font-weight:bold;font-size:36.11101151px;font-family:Lato;-inkscape-font-specification:Lato-Bold;writing-mode:lr-tb;fill:#ffffff;fill-opacity:1;fill-rule:nonzero;stroke:none;stroke-width:2.34487104"
         id="text1149"><tspan
           style="stroke-width:2.34487104"
           x="1816.1752 1836.6932 1856.1287 1874.6077 1888.0524 1907.4878 1928.1321"
           y="1665.3726"
           sodipodi:role="line"
           id="tspan1147">heated?</tspan></text>
<text
         y="1714.6147"
         x="1816.1752"
         style="font-style:italic;font-variant:normal;font-size:36.11101151px;font-family:Lato;-inkscape-font-specification:Lato-Italic;writing-mode:lr-tb;fill:#ffffff;fill-opacity:1;fill-rule:nonzero;stroke:none;stroke-width:2.34487104"
         id="text1153"><tspan
           style="stroke-width:2.34487104"
           x="1816.1752 1840.5725 1852.4109 1871.3049 1890.578 1909.869 1929.124 1937.7328 1954.3152 1966.8215 1986.0946 1999.0521 2018.3251 2026.934 2049.8699 2069.1609 2083.7605 2109.7639 2127.1963 2139.5945 2154.1938 2163.3262"
           y="1714.6147"
           sodipodi:role="line"
           id="tspan1151">Ground Truth Answers: </tspan></text>
<text
         y="1714.6147"
         x="2178.9341"
         style="font-variant:normal;font-weight:normal;font-size:36.11101151px;font-family:Lato;-inkscape-font-specification:Lato-Regular;writing-mode:lr-tb;fill:#ffffff;fill-opacity:1;fill-rule:nonzero;stroke:none;stroke-width:2.34487104"
         id="text1159"><tspan
           style="stroke-width:2.34487104"
           x="2178.9341 2194.7244 2207.7361 2226.9548 2245.0552"
           y="1714.6147"
           sodipodi:role="line"
           id="tspan1157">steam</tspan></text>
<text
         y="1714.6147"
         x="2298.3394"
         style="font-variant:normal;font-weight:normal;font-size:36.11101151px;font-family:Lato;-inkscape-font-specification:Lato-Regular;writing-mode:lr-tb;fill:#ffffff;fill-opacity:1;fill-rule:nonzero;stroke:none;stroke-width:2.34487104"
         id="text1165"><tspan
           style="stroke-width:2.34487104"
           x="2298.3394 2314.1299 2327.1414 2346.3601 2364.4604"
           y="1714.6147"
           sodipodi:role="line"
           id="tspan1163">steam</tspan></text>
<text
         y="1714.6147"
         x="2417.7444"
         style="font-variant:normal;font-weight:normal;font-size:36.11101151px;font-family:Lato;-inkscape-font-specification:Lato-Regular;writing-mode:lr-tb;fill:#ffffff;fill-opacity:1;fill-rule:nonzero;stroke:none;stroke-width:2.34487104"
         id="text1171"><tspan
           style="stroke-width:2.34487104"
           x="2417.7444 2433.5349 2446.5466 2465.7654 2483.8655"
           y="1714.6147"
           sodipodi:role="line"
           id="tspan1169">steam</tspan></text>
<text
         y="1714.6147"
         x="2537.1497"
         style="font-variant:normal;font-weight:normal;font-size:36.11101151px;font-family:Lato;-inkscape-font-specification:Lato-Regular;writing-mode:lr-tb;fill:#ffffff;fill-opacity:1;fill-rule:nonzero;stroke:none;stroke-width:2.34487104"
         id="text1177"><tspan
           style="stroke-width:2.34487104"
           x="2537.1497 2552.9402 2565.9517 2585.1707 2603.2708"
           y="1714.6147"
           sodipodi:role="line"
           id="tspan1175">steam</tspan></text>
<text
         y="1827.1687"
         x="1816.1752"
         style="font-variant:normal;font-weight:bold;font-size:36.11101151px;font-family:Lato;-inkscape-font-specification:Lato-Bold;writing-mode:lr-tb;fill:#ffffff;fill-opacity:1;fill-rule:nonzero;stroke:none;stroke-width:2.34487104"
         id="text1181"><tspan
           style="stroke-width:2.34487104"
           x="1816.1752 1841.4028 1854.9918 1863.9255 1893.0507 1913.5687 1932.0479 1945.6368 1954.5706 1975.2329 1988.3345 2007.7699 2023.7949 2039.8199 2060.3381 2073.4397 2092.875 2101.8086 2111.1392 2127.1643 2136.0979 2164.9885 2183.4675 2196.9121 2216.3474 2229.9727 2238.9062 2259.4246 2278.8599 2297.3389 2310.7837 2330.219 2350.8633 2359.7969 2369.1277 2389.6458 2398.5793 2412.1685 2432.6865 2452.1221 2461.0557 2484.1357 2502.6147 2523.1328 2542.5864 2551.917 2572.4351 2591.8704 2600.8042 2618.3628 2636.9858 2654.5447 2663.6768 2682.1914"
           y="1827.1687"
           sodipodi:role="line"
           id="tspan1179">At what pressure is water heated in the Rankine cycle?</tspan></text>
<text
         y="1876.4109"
         x="1816.1752"
         style="font-style:italic;font-variant:normal;font-size:36.11101151px;font-family:Lato;-inkscape-font-specification:Lato-Italic;writing-mode:lr-tb;fill:#ffffff;fill-opacity:1;fill-rule:nonzero;stroke:none;stroke-width:2.34487104"
         id="text1185"><tspan
           style="stroke-width:2.34487104"
           x="1816.1752 1840.5725 1852.4109 1871.3049 1890.578 1909.869 1929.124 1937.7328 1954.3152 1966.8215 1986.0946 1999.0521 2018.3251 2026.934 2049.8699 2069.1609 2083.7605 2109.7639 2127.1963 2139.5945 2154.1938 2163.3262"
           y="1876.4109"
           sodipodi:role="line"
           id="tspan1183">Ground Truth Answers: </tspan></text>
<text
         y="1876.4109"
         x="2178.9341"
         style="font-variant:normal;font-weight:normal;font-size:36.11101151px;font-family:Lato;-inkscape-font-specification:Lato-Regular;writing-mode:lr-tb;fill:#ffffff;fill-opacity:1;fill-rule:nonzero;stroke:none;stroke-width:2.34487104"
         id="text1191"><tspan
           style="stroke-width:2.34487104"
           x="2178.9341 2199.2356 2208.0608 2226.991"
           y="1876.4109"
           sodipodi:role="line"
           id="tspan1189">high</tspan></text>
<text
         y="1876.4109"
         x="2362.4934"
         style="font-variant:normal;font-weight:normal;font-size:36.11101151px;font-family:Lato;-inkscape-font-specification:Lato-Regular;writing-mode:lr-tb;fill:#ffffff;fill-opacity:1;fill-rule:nonzero;stroke:none;stroke-width:2.34487104"
         id="text1203"><tspan
           style="stroke-width:2.34487104"
           x="2362.4934 2382.7949 2391.6204 2410.5505 2430.8521 2440.2549 2460.6467 2473.2068 2492.4255 2508.2161 2524.0066 2544.29 2556.8501"
           y="1876.4109"
           sodipodi:role="line"
           id="tspan1201">high pressure</tspan></text>
<text
         y="1876.4109"
         x="2599.5085"
         style="font-variant:normal;font-weight:normal;font-size:36.11101151px;font-family:Lato;-inkscape-font-specification:Lato-Regular;writing-mode:lr-tb;fill:#ffffff;fill-opacity:1;fill-rule:nonzero;stroke:none;stroke-width:2.34487104"
         id="text1209"><tspan
           style="stroke-width:2.34487104"
           x="2599.5085 2619.8101 2628.6355 2647.5657"
           y="1876.4109"
           sodipodi:role="line"
           id="tspan1207">high</tspan></text>
<text
         y="1988.9648"
         x="1816.1752"
         style="font-variant:normal;font-weight:bold;font-size:36.11101151px;font-family:Lato;-inkscape-font-specification:Lato-Bold;writing-mode:lr-tb;fill:#ffffff;fill-opacity:1;fill-rule:nonzero;stroke:none;stroke-width:2.34487104"
         id="text1213"><tspan
           style="stroke-width:2.34487104"
           x="1816.1752 1853.9976 1874.5156 1892.9946 1906.5837 1915.5173 1929.1064 1948.3073 1968.9697 1988.4052 2004.4302 2013.3638 2033.8093 2046.9113 2055.845 2075.2803 2095.7983 2115.0173 2124.3479 2144.866 2164.3013 2180.3264 2189.26 2207.739 2220.8406 2240.2761 2249.2097 2265.2349 2278.6794 2298.1147 2316.594 2346.9822 2355.9158 2375.3513 2395.8694 2415.0881 2424.4187 2444.9368 2464.3723 2479.7834"
           y="1988.9648"
           sodipodi:role="line"
           id="tspan1211">What types of engines are steam engines?</tspan></text>
<text
         y="2038.207"
         x="1816.1752"
         style="font-style:italic;font-variant:normal;font-size:36.11101151px;font-family:Lato;-inkscape-font-specification:Lato-Italic;writing-mode:lr-tb;fill:#ffffff;fill-opacity:1;fill-rule:nonzero;stroke:none;stroke-width:2.34487104"
         id="text1217"><tspan
           style="stroke-width:2.34487104"
           x="1816.1752 1840.5725 1852.4109 1871.3049 1890.578 1909.869 1929.124 1937.7328 1954.3152 1966.8215 1986.0946 1999.0521 2018.3251 2026.934 2049.8699 2069.1609 2083.7605 2109.7639 2127.1963 2139.5945 2154.1938 2163.3262"
           y="2038.207"
           sodipodi:role="line"
           id="tspan1215">Ground Truth Answers: </tspan></text>
<text
         y="2038.207"
         x="2178.9341"
         style="font-variant:normal;font-weight:normal;font-size:36.11101151px;font-family:Lato;-inkscape-font-specification:Lato-Regular;writing-mode:lr-tb;fill:#ffffff;fill-opacity:1;fill-rule:nonzero;stroke:none;stroke-width:2.34487104"
         id="text1223"><tspan
           style="stroke-width:2.34487104"
           x="2178.9341 2197.9182 2216.0544 2229.0659 2248.2849 2261.5852 2281.8867 2299.9868 2308.668 2318.0706 2335.1421 2355.7683 2385.6152 2405.989 2426.2725 2442.063 2455.1648 2463.9902 2484.6165"
           y="2038.207"
           sodipodi:role="line"
           id="tspan1221">external combustion</tspan></text>
<path
         d="m 2521.9814,2007.7237 h 136.0025 v 2.3449 h -136.0025 z"
         style="fill:#ffffff;fill-opacity:1;fill-rule:nonzero;stroke:none;stroke-width:2.34487104"
         id="path1225"
         inkscape:connector-curvature="0" /><path
         d="m 2521.9814,2045.2417 h 136.0025 v 2.3448 h -136.0025 z"
         style="fill:#ffffff;fill-opacity:1;fill-rule:nonzero;stroke:none;stroke-width:2.34487104"
         id="path1227"
         inkscape:connector-curvature="0" /><path
         d="m 2521.9814,2007.7237 h 2.3448 v 39.8628 h -2.3448 z"
         style="fill:#ffffff;fill-opacity:1;fill-rule:nonzero;stroke:none;stroke-width:2.34487104"
         id="path1229"
         inkscape:connector-curvature="0" /><text
         y="2038.207"
         x="2528.3564"
         style="font-variant:normal;font-weight:normal;font-size:36.11101151px;font-family:Lato;-inkscape-font-specification:Lato-Regular;writing-mode:lr-tb;fill:#ffffff;fill-opacity:1;fill-rule:nonzero;stroke:none;stroke-width:2.34487104"
         id="text1233"><tspan
           style="stroke-width:2.34487104"
           x="2528.3564 2547.3406 2565.4768 2578.4885 2597.7073 2611.0076 2631.3091 2649.4094"
           y="2038.207"
           sodipodi:role="line"
           id="tspan1231">external</tspan></text>
<path
         d="m 1816.1752,2056.966 h 194.6243 v 2.3449 h -194.6243 z"
         style="fill:#ffffff;fill-opacity:1;fill-rule:nonzero;stroke:none;stroke-width:2.34487104"
         id="path1235"
         inkscape:connector-curvature="0" /><path
         d="m 1816.1752,2094.4839 h 194.6243 v 2.3449 h -194.6243 z"
         style="fill:#ffffff;fill-opacity:1;fill-rule:nonzero;stroke:none;stroke-width:2.34487104"
         id="path1237"
         inkscape:connector-curvature="0" /><path
         d="m 2008.4546,2056.966 h 2.3449 v 39.8628 h -2.3449 z"
         style="fill:#ffffff;fill-opacity:1;fill-rule:nonzero;stroke:none;stroke-width:2.34487104"
         id="path1239"
         inkscape:connector-curvature="0" /><text
         y="2087.4492"
         x="1816.1752"
         style="font-variant:normal;font-weight:normal;font-size:36.11101151px;font-family:Lato;-inkscape-font-specification:Lato-Regular;writing-mode:lr-tb;fill:#ffffff;fill-opacity:1;fill-rule:nonzero;stroke:none;stroke-width:2.34487104"
         id="text1243"><tspan
           style="stroke-width:2.34487104"
           x="1816.1752 1833.2466 1853.8729 1883.7198 1904.0935 1924.377 1940.1675 1953.2693 1962.0947 1982.7209"
           y="2087.4492"
           sodipodi:role="line"
           id="tspan1241">combustion</tspan></text>
<text
         y="2087.4492"
         x="2026.4441"
         style="font-variant:normal;font-weight:normal;font-size:36.11101151px;font-family:Lato;-inkscape-font-specification:Lato-Regular;writing-mode:lr-tb;fill:#ffffff;fill-opacity:1;fill-rule:nonzero;stroke:none;stroke-width:2.34487104"
         id="text1249"><tspan
           style="stroke-width:2.34487104"
           x="2026.4441 2045.4282 2063.5645 2076.5759 2095.7949 2109.0952 2129.3967 2147.4968 2156.178 2165.5808 2182.6521 2203.2786 2233.1255 2253.499 2273.7825 2289.573 2302.6748 2311.5002 2332.1265 2352.4282 2361.8308 2381.0498 2401.3513 2420.2815 2429.1069 2449.4084 2468.6272"
           y="2087.4492"
           sodipodi:role="line"
           id="tspan1247">external combustion engines</tspan></text>
<path
         d="M 2500.8775,2056.966 H 2636.88 v 2.3449 h -136.0025 z"
         style="fill:#ffffff;fill-opacity:1;fill-rule:nonzero;stroke:none;stroke-width:2.34487104"
         id="path1251"
         inkscape:connector-curvature="0" /><path
         d="M 2500.8775,2094.4839 H 2636.88 v 2.3449 h -136.0025 z"
         style="fill:#ffffff;fill-opacity:1;fill-rule:nonzero;stroke:none;stroke-width:2.34487104"
         id="path1253"
         inkscape:connector-curvature="0" /><path
         d="m 2500.8775,2056.966 h 2.3449 v 39.8628 h -2.3449 z"
         style="fill:#ffffff;fill-opacity:1;fill-rule:nonzero;stroke:none;stroke-width:2.34487104"
         id="path1255"
         inkscape:connector-curvature="0" /><text
         y="2087.4492"
         x="2507.8389"
         style="font-variant:normal;font-weight:normal;font-size:36.11101151px;font-family:Lato;-inkscape-font-specification:Lato-Regular;writing-mode:lr-tb;fill:#ffffff;fill-opacity:1;fill-rule:nonzero;stroke:none;stroke-width:2.34487104"
         id="text1259"><tspan
           style="stroke-width:2.34487104"
           x="2507.8389 2526.823 2544.9592 2557.9707 2577.1897 2590.49 2610.7915 2628.8916"
           y="2087.4492"
           sodipodi:role="line"
           id="tspan1257">external</tspan></text>
<path
         d="m 1816.1752,2106.2083 h 194.6243 v 2.3449 h -194.6243 z"
         style="fill:#ffffff;fill-opacity:1;fill-rule:nonzero;stroke:none;stroke-width:2.34487104"
         id="path1261"
         inkscape:connector-curvature="0" /><path
         d="m 1816.1752,2143.7262 h 194.6243 v 2.3449 h -194.6243 z"
         style="fill:#ffffff;fill-opacity:1;fill-rule:nonzero;stroke:none;stroke-width:2.34487104"
         id="path1263"
         inkscape:connector-curvature="0" /><path
         d="m 2008.4546,2106.2083 h 2.3449 v 39.8628 h -2.3449 z"
         style="fill:#ffffff;fill-opacity:1;fill-rule:nonzero;stroke:none;stroke-width:2.34487104"
         id="path1265"
         inkscape:connector-curvature="0" /><text
         y="2136.6917"
         x="1816.1752"
         style="font-variant:normal;font-weight:normal;font-size:36.11101151px;font-family:Lato;-inkscape-font-specification:Lato-Regular;writing-mode:lr-tb;fill:#ffffff;fill-opacity:1;fill-rule:nonzero;stroke:none;stroke-width:2.34487104"
         id="text1269"><tspan
           style="stroke-width:2.34487104"
           x="1816.1752 1833.2466 1853.8729 1883.7198 1904.0935 1924.377 1940.1675 1953.2693 1962.0947 1982.7209"
           y="2136.6917"
           sodipodi:role="line"
           id="tspan1267">combustion</tspan></text>
</g><path
       style="fill:none;fill-rule:evenodd;stroke:#fffe00;stroke-width:3.18093967px;stroke-linecap:butt;stroke-linejoin:miter;stroke-opacity:1"
       d="M 1558.859,1072.3138 V 2178.5354"
       id="path1764"
       inkscape:connector-curvature="0" /></g></svg>