<?xml version="1.0" encoding="UTF-8" standalone="no"?>
<!-- Created with Inkscape (http://www.inkscape.org/) -->

<svg
   xmlns:dc="http://purl.org/dc/elements/1.1/"
   xmlns:cc="http://creativecommons.org/ns#"
   xmlns:rdf="http://www.w3.org/1999/02/22-rdf-syntax-ns#"
   xmlns:svg="http://www.w3.org/2000/svg"
   xmlns="http://www.w3.org/2000/svg"
   xmlns:sodipodi="http://sodipodi.sourceforge.net/DTD/sodipodi-0.dtd"
   xmlns:inkscape="http://www.inkscape.org/namespaces/inkscape"
   width="297mm"
   height="210mm"
   viewBox="0 0 297 210"
   version="1.1"
   id="svg8"
   inkscape:version="0.92.4 (5da689c313, 2019-01-14)"
   sodipodi:docname="TuringTest.svg">
  <defs
     id="defs2">
    <marker
       inkscape:isstock="true"
       style="overflow:visible;"
       id="marker1931"
       refX="0.0"
       refY="0.0"
       orient="auto"
       inkscape:stockid="Arrow1Mend">
      <path
         transform="scale(0.4) rotate(180) translate(10,0)"
         style="fill-rule:evenodd;stroke:#ffffff;stroke-width:1pt;stroke-opacity:1;fill:#ffffff;fill-opacity:1"
         d="M 0.0,0.0 L 5.0,-5.0 L -12.5,0.0 L 5.0,5.0 L 0.0,0.0 z "
         id="path1929" />
    </marker>
    <marker
       inkscape:isstock="true"
       style="overflow:visible;"
       id="marker1885"
       refX="0.0"
       refY="0.0"
       orient="auto"
       inkscape:stockid="Arrow1Lend">
      <path
         transform="scale(0.8) rotate(180) translate(12.5,0)"
         style="fill-rule:evenodd;stroke:#ffffff;stroke-width:1pt;stroke-opacity:1;fill:#ffffff;fill-opacity:1"
         d="M 0.0,0.0 L 5.0,-5.0 L -12.5,0.0 L 5.0,5.0 L 0.0,0.0 z "
         id="path1883" />
    </marker>
    <marker
       inkscape:isstock="true"
       style="overflow:visible"
       id="marker1845"
       refX="0.0"
       refY="0.0"
       orient="auto"
       inkscape:stockid="Arrow1Mstart">
      <path
         transform="scale(0.4) translate(10,0)"
         style="fill-rule:evenodd;stroke:#ffffff;stroke-width:1pt;stroke-opacity:1;fill:#ffffff;fill-opacity:1"
         d="M 0.0,0.0 L 5.0,-5.0 L -12.5,0.0 L 5.0,5.0 L 0.0,0.0 z "
         id="path1843" />
    </marker>
    <marker
       inkscape:stockid="Arrow1Mend"
       orient="auto"
       refY="0.0"
       refX="0.0"
       id="Arrow1Mend"
       style="overflow:visible;"
       inkscape:isstock="true"
       inkscape:collect="always">
      <path
         id="path1361"
         d="M 0.0,0.0 L 5.0,-5.0 L -12.5,0.0 L 5.0,5.0 L 0.0,0.0 z "
         style="fill-rule:evenodd;stroke:#ffffff;stroke-width:1pt;stroke-opacity:1;fill:#ffffff;fill-opacity:1"
         transform="scale(0.4) rotate(180) translate(10,0)" />
    </marker>
    <marker
       inkscape:stockid="Arrow1Lend"
       orient="auto"
       refY="0.0"
       refX="0.0"
       id="Arrow1Lend"
       style="overflow:visible;"
       inkscape:isstock="true"
       inkscape:collect="always">
      <path
         id="path1355"
         d="M 0.0,0.0 L 5.0,-5.0 L -12.5,0.0 L 5.0,5.0 L 0.0,0.0 z "
         style="fill-rule:evenodd;stroke:#ffffff;stroke-width:1pt;stroke-opacity:1;fill:#ffffff;fill-opacity:1"
         transform="scale(0.8) rotate(180) translate(12.5,0)" />
    </marker>
    <marker
       inkscape:stockid="Arrow1Mstart"
       orient="auto"
       refY="0.0"
       refX="0.0"
       id="Arrow1Mstart"
       style="overflow:visible"
       inkscape:isstock="true"
       inkscape:collect="always">
      <path
         id="path1358"
         d="M 0.0,0.0 L 5.0,-5.0 L -12.5,0.0 L 5.0,5.0 L 0.0,0.0 z "
         style="fill-rule:evenodd;stroke:#ffffff;stroke-width:1pt;stroke-opacity:1;fill:#ffffff;fill-opacity:1"
         transform="scale(0.4) translate(10,0)" />
    </marker>
    <marker
       inkscape:stockid="Arrow1Lstart"
       orient="auto"
       refY="0.0"
       refX="0.0"
       id="Arrow1Lstart"
       style="overflow:visible"
       inkscape:isstock="true">
      <path
         id="path1352"
         d="M 0.0,0.0 L 5.0,-5.0 L -12.5,0.0 L 5.0,5.0 L 0.0,0.0 z "
         style="fill-rule:evenodd;stroke:#ffffff;stroke-width:1pt;stroke-opacity:1;fill:#ffffff;fill-opacity:1"
         transform="scale(0.8) translate(12.5,0)" />
    </marker>
  </defs>
  <sodipodi:namedview
     id="base"
     pagecolor="#000000"
     bordercolor="#666666"
     borderopacity="1.0"
     inkscape:pageopacity="0"
     inkscape:pageshadow="2"
     inkscape:zoom="0.82964517"
     inkscape:cx="434.71765"
     inkscape:cy="399.67235"
     inkscape:document-units="mm"
     inkscape:current-layer="layer1"
     showgrid="false"
     inkscape:window-width="1920"
     inkscape:window-height="1056"
     inkscape:window-x="0"
     inkscape:window-y="24"
     inkscape:window-maximized="1" />
  <metadata
     id="metadata5">
    <rdf:RDF>
      <cc:Work
         rdf:about="">
        <dc:format>image/svg+xml</dc:format>
        <dc:type
           rdf:resource="http://purl.org/dc/dcmitype/StillImage" />
        <dc:title></dc:title>
      </cc:Work>
    </rdf:RDF>
  </metadata>
  <g
     inkscape:label="Layer 1"
     inkscape:groupmode="layer"
     id="layer1"
     transform="translate(0,-87)">
    <path
       style="opacity:1;fill:#000000;fill-opacity:1;stroke:none;stroke-width:0.64425844;stroke-miterlimit:4;stroke-dasharray:none;stroke-dashoffset:0;stroke-opacity:1"
       d="m 331.95813,261.6805 c -1.97824,-1.97824 -0.96927,-2.76868 3.57564,-2.80124 7.4523,-0.0534 9.28247,1.49765 3.73006,3.1612 -4.37758,1.31155 -5.69931,1.24643 -7.3057,-0.35996 z"
       id="path921"
       inkscape:connector-curvature="0"
       transform="matrix(0.26458333,0,0,0.26458333,0,87)" />
    <path
       style="opacity:1;fill:#000000;fill-opacity:1;stroke:none;stroke-width:0.32212922;stroke-miterlimit:4;stroke-dasharray:none;stroke-dashoffset:0;stroke-opacity:1"
       d="m 331.8366,253.29825 c -0.73124,-0.4642 1.01612,-2.09408 2.79063,-2.603 0.99782,-0.28617 1.4519,-0.22633 1.84112,0.24265 0.28414,0.34237 0.75019,0.53287 1.03565,0.42333 0.68176,-0.26162 1.47518,0.55809 1.47518,1.52406 0,0.67324 -0.40401,0.76627 -3.30267,0.76055 -1.81646,-0.004 -3.54442,-0.16001 -3.83991,-0.34759 z m 1.8157,-0.49819 c -0.14486,-0.23438 -0.44382,-0.42615 -0.66437,-0.42615 -0.22055,0 -0.40101,0.19177 -0.40101,0.42615 0,0.23438 0.29897,0.42615 0.66438,0.42615 0.36541,0 0.54586,-0.19177 0.401,-0.42615 z m 4.61935,-0.11052 c -0.13331,-0.21569 -0.93955,-0.26414 -1.79164,-0.10766 -1.25379,0.23024 -1.44767,0.18065 -1.01657,-0.26004 0.29298,-0.2995 0.53269,-0.69795 0.53269,-0.88546 0,-0.49172 -1.6052,-0.42038 -1.91768,0.0852 -0.14486,0.23438 -0.0398,0.42615 0.23352,0.42615 0.27329,0 0.39077,0.27655 0.26107,0.61455 -0.18701,0.48734 0.19644,0.6047 1.85258,0.56698 1.15166,-0.0262 1.97969,-0.22348 1.84603,-0.43975 z"
       id="path925"
       inkscape:connector-curvature="0"
       transform="matrix(0.26458333,0,0,0.26458333,0,87)" />
    <path
       style="opacity:1;fill:#000000;fill-opacity:1;stroke:none;stroke-width:0.32212922;stroke-miterlimit:4;stroke-dasharray:none;stroke-dashoffset:0;stroke-opacity:1"
       d=""
       id="path927"
       inkscape:connector-curvature="0"
       transform="matrix(0.26458333,0,0,0.26458333,0,87)" />
    <path
       style="opacity:1;fill:#000000;fill-opacity:1;stroke:none;stroke-width:0.32212922;stroke-miterlimit:4;stroke-dasharray:none;stroke-dashoffset:0;stroke-opacity:1"
       d="m 231.48281,262.86059 c -1.05951,-0.80428 -0.96247,-0.98678 1.03888,-1.95373 2.0089,-0.9706 4.02205,-1.1274 4.28655,-0.33389 0.20765,0.62295 -1.44456,2.02854 -2.38445,2.02854 -0.35936,0 -0.77191,0.19177 -0.91677,0.42615 -0.35724,0.57804 -1.12627,0.51457 -2.02421,-0.16707 z"
       id="path929"
       inkscape:connector-curvature="0"
       transform="matrix(0.26458333,0,0,0.26458333,0,87)" />
    <path
       style="opacity:1;fill:#000000;fill-opacity:1;stroke:none;stroke-width:0.32212922;stroke-miterlimit:4;stroke-dasharray:none;stroke-dashoffset:0;stroke-opacity:1"
       d="m 233.61853,258.89091 c 0.53009,-0.10193 1.29716,-0.0981 1.7046,0.009 0.40744,0.10667 -0.0263,0.19006 -0.96381,0.18533 -0.93753,-0.005 -1.27089,-0.092 -0.74079,-0.19393 z"
       id="path931"
       inkscape:connector-curvature="0"
       transform="matrix(0.26458333,0,0,0.26458333,0,87)" />
    <path
       style="opacity:1;fill:#000000;fill-opacity:1;stroke:none;stroke-width:0.32212922;stroke-miterlimit:4;stroke-dasharray:none;stroke-dashoffset:0;stroke-opacity:1"
       d="m 116.40049,352.20362 c -2.7625,-0.17255 -3.50707,-0.93101 -2.15267,-2.19282 1.13021,-1.05296 3.55944,-1.51505 3.55944,-0.67708 0,0.34571 -0.19176,0.62857 -0.42615,0.62857 -0.23438,0 -0.42615,0.19177 -0.42615,0.42615 0,0.63003 1.09858,0.51713 1.67021,-0.17164 0.38097,-0.45903 0.36835,-0.64904 -0.0544,-0.81865 -0.30276,-0.12148 -0.14872,-0.23601 0.34232,-0.25452 1.00976,-0.038 2.30333,1.19047 2.30333,2.1875 0,0.56597 -1.47862,1.33047 -2.13075,1.10166 -0.11719,-0.0411 -1.32554,-0.14424 -2.68522,-0.22917 z m 3.96367,-1.38903 c 0,-0.23438 -0.19176,-0.42615 -0.42615,-0.42615 -0.23438,0 -0.42615,0.19177 -0.42615,0.42615 0,0.23438 0.19177,0.42615 0.42615,0.42615 0.23439,0 0.42615,-0.19177 0.42615,-0.42615 z"
       id="path933"
       inkscape:connector-curvature="0"
       transform="matrix(0.26458333,0,0,0.26458333,0,87)" />
    <path
       style="opacity:1;fill:#000000;fill-opacity:1;stroke:none;stroke-width:0.32212922;stroke-miterlimit:4;stroke-dasharray:none;stroke-dashoffset:0;stroke-opacity:1"
       d="m 139.89438,352.129 c -1.79785,-0.13697 -3.38976,-0.37073 -3.53759,-0.51948 -0.14783,-0.14874 0.20427,-0.81993 0.78244,-1.49152 0.92333,-1.07252 1.31819,-1.21313 3.24547,-1.15572 1.41799,0.0422 2.48605,0.32944 3.01906,0.81181 0.91534,0.82838 1.1291,2.78542 0.29212,2.67452 -0.29297,-0.0388 -2.00365,-0.18265 -3.8015,-0.31961 z m 3.05574,-0.79452 c 0,-0.0824 -0.19851,-0.5207 -0.44114,-0.97406 -0.52792,-0.98641 -1.38824,-1.06166 -2.11576,-0.18506 -0.29178,0.35158 -0.8152,0.63923 -1.16315,0.63923 -0.38726,0 -0.5375,-0.24793 -0.38734,-0.63923 0.14942,-0.38937 6.7e-4,-0.63922 -0.38056,-0.63922 -0.57101,0 -0.89108,1.29732 -0.43307,1.75533 0.2246,0.2246 4.92102,0.26565 4.92102,0.043 z"
       id="path935"
       inkscape:connector-curvature="0"
       transform="matrix(0.26458333,0,0,0.26458333,0,87)" />
    <path
       style="opacity:1;fill:#000000;fill-opacity:1;stroke:none;stroke-width:0.32212922;stroke-miterlimit:4;stroke-dasharray:none;stroke-dashoffset:0;stroke-opacity:1"
       d="m 58.998547,351.17619 c 0,-0.21848 0.375196,-0.79996 0.833769,-1.29218 0.707451,-0.75936 1.138528,-0.85318 2.845368,-0.61923 1.867624,0.25599 3.565415,1.22042 3.565415,2.02534 0,0.18889 -1.630024,0.32991 -3.622276,0.31338 -1.992252,-0.0165 -3.622276,-0.20882 -3.622276,-0.42731 z m 2.130751,-0.78775 c 0,-0.23438 -0.191768,-0.42615 -0.42615,-0.42615 -0.234383,0 -0.426151,0.19177 -0.426151,0.42615 0,0.23438 0.191768,0.42615 0.426151,0.42615 0.234382,0 0.42615,-0.19177 0.42615,-0.42615 z"
       id="path937"
       inkscape:connector-curvature="0"
       transform="matrix(0.26458333,0,0,0.26458333,0,87)" />
    <path
       style="opacity:1;fill:#000000;fill-opacity:1;stroke:none;stroke-width:0.32212922;stroke-miterlimit:4;stroke-dasharray:none;stroke-dashoffset:0;stroke-opacity:1"
       d="m 226.90169,367.94013 c 0,-0.19063 -0.65669,-0.60427 -1.45931,-0.9192 -0.80263,-0.31493 -1.56746,-0.87808 -1.69964,-1.25145 -0.13217,-0.37338 -0.61207,-1.25416 -1.06643,-1.95731 -0.79895,-1.23641 -0.82715,-2.3865 -0.85727,-34.97081 -0.0304,-32.84262 -0.01,-33.7368 0.82031,-35.45466 0.4683,-0.96928 1.55594,-2.29973 2.41697,-2.95656 l 1.56551,-1.19424 h 39.48826 39.48826 l 1.77516,1.22987 c 0.97634,0.67642 1.77516,1.576 1.77516,1.99906 0,0.42306 0.19177,0.88771 0.42615,1.03257 0.2786,0.17218 0.42287,12.31697 0.41667,35.076 -0.009,33.89383 -0.0315,34.84073 -0.84282,35.87799 -0.45834,0.58596 -0.841,1.25715 -0.85035,1.49153 -0.009,0.23438 -0.93025,0.85763 -2.04642,1.38499 l -2.02942,0.95883 h -38.66039 c -21.26322,0 -38.6604,-0.15597 -38.6604,-0.34661 z m 81.39468,-4.57926 c 0,-0.36541 -0.1949,-0.54392 -0.4331,-0.39671 -0.23821,0.14722 -0.32278,0.44619 -0.18793,0.66438 0.36531,0.59109 0.62103,0.48087 0.62103,-0.26767 z m -49.1138,-15.61044 c 0.76174,0.0113 1.38498,-0.15022 1.38498,-0.35891 0,-0.20869 0.77879,-0.58914 1.73065,-0.84545 1.53679,-0.41381 1.71579,-0.59466 1.59806,-1.61448 -0.10968,-0.95011 -0.51819,-1.29569 -2.36513,-2.00078 -1.2279,-0.46876 -2.23098,-1.04407 -2.22907,-1.27845 0.008,-1.00011 1.19281,-4.59903 1.22739,-3.72881 0.021,0.52736 0.21855,0.95884 0.4391,0.95884 0.73998,0 0.91109,-0.80995 0.3592,-1.70028 -0.84791,-1.36788 0.11811,-1.66862 5.26994,-1.64067 l 4.55873,0.0247 0.50856,1.33849 c 0.2797,0.73618 0.77372,1.94278 1.09781,2.68135 0.92193,2.10096 0.74095,2.65179 -1.11533,3.39452 -1.42695,0.57096 -1.7046,0.87865 -1.7046,1.88908 0,1.2924 0.55285,1.85481 1.91767,1.95086 0.46877,0.033 1.81114,0.25471 2.98305,0.49272 2.90788,0.59058 6.39381,0.34316 8.94916,-0.63517 1.79496,-0.68723 2.11295,-0.97294 2.01786,-1.81301 -0.12387,-1.09426 -1.20785,-2.11251 -2.27143,-2.13372 -0.37384,-0.007 -0.97662,-0.34915 -1.33952,-0.75932 -0.85841,-0.97023 -3.30764,-6.77322 -3.30764,-7.83683 0,-0.45247 -0.27211,-1.2474 -0.6047,-1.76652 -0.33259,-0.51911 -0.99006,-2.09445 -1.46106,-3.50074 -0.47101,-1.4063 -1.26798,-3.61162 -1.77105,-4.90073 -0.50308,-1.2891 -1.08404,-2.88977 -1.29101,-3.55704 -0.20698,-0.66727 -0.55417,-1.43434 -0.77154,-1.7046 -0.34721,-0.4317 -0.99657,-1.91626 -2.78525,-6.36765 -0.51641,-1.28516 -1.79858,-1.82819 -3.23795,-1.37135 -0.85412,0.27109 -2.85057,3.93451 -3.60135,6.60839 -0.16453,0.58596 -0.65632,1.83244 -1.09287,2.76998 -0.43654,0.93753 -1.38289,2.9785 -2.10299,4.5355 -0.72011,1.55699 -1.30929,3.32404 -1.30929,3.92676 0,0.60273 -0.47941,1.95459 -1.06537,3.00414 -0.58596,1.04955 -1.06538,2.20905 -1.06538,2.57666 0,0.36762 -0.3991,1.57721 -0.8869,2.68797 -0.4878,1.11076 -1.15139,2.63338 -1.47463,3.38358 -0.45086,1.04639 -0.9886,1.47196 -2.30922,1.82757 -0.94682,0.25495 -1.7215,0.64792 -1.7215,0.87327 0,0.22535 -0.28765,0.40973 -0.63922,0.40973 -0.41357,0 -0.63923,0.41459 -0.63923,1.17442 0,0.92801 0.29059,1.28988 1.38499,1.72469 0.76174,0.30265 1.86441,0.79095 2.45036,1.08512 0.59027,0.29633 1.92057,0.45476 2.98305,0.35524 1.05472,-0.0988 2.54092,-0.17037 3.30267,-0.15908 z m 3.94189,-10.38472 c 0,-0.36541 -0.1949,-0.54392 -0.43311,-0.3967 -0.2382,0.14721 -0.32277,0.44618 -0.18792,0.66437 0.36531,0.59109 0.62103,0.48087 0.62103,-0.26767 z m -4.68766,-7.85863 c 0,-0.23438 -0.19176,-0.42615 -0.42615,-0.42615 -0.23438,0 -0.42615,0.19177 -0.42615,0.42615 0,0.23439 0.19177,0.42615 0.42615,0.42615 0.23439,0 0.42615,-0.19176 0.42615,-0.42615 z m 50.07264,-34.94431 c 0.14486,-0.23438 -0.0469,-0.42615 -0.42615,-0.42615 -0.37924,0 -0.571,0.19177 -0.42615,0.42615 0.14486,0.23439 0.33663,0.42615 0.42615,0.42615 0.0895,0 0.2813,-0.19176 0.42615,-0.42615 z m -3.1322,-3.19612 c 0,-0.22267 -0.20615,-0.47356 -0.45811,-0.55755 -0.25196,-0.084 -0.45811,0.16691 -0.45811,0.55755 0,0.39063 0.20615,0.64153 0.45811,0.55754 0.25196,-0.084 0.45811,-0.33488 0.45811,-0.55754 z"
       id="path941"
       inkscape:connector-curvature="0"
       transform="matrix(0.26458333,0,0,0.26458333,0,87)" />
    <path
       style="opacity:1;fill:#000000;fill-opacity:1;stroke:none;stroke-width:0.32212922;stroke-miterlimit:4;stroke-dasharray:none;stroke-dashoffset:0;stroke-opacity:1"
       d="m 223.91864,372.95115 c 0,-0.2216 -0.59786,-0.40291 -1.32858,-0.40291 -0.97513,0 -1.74164,-0.42514 -2.88121,-1.59806 -3.1961,-3.28964 -2.98726,-0.31328 -3.02341,-43.0892 -0.0276,-32.62606 0.0576,-38.40967 0.56984,-38.70455 0.33124,-0.19068 0.67169,-0.7172 0.75656,-1.17006 0.0849,-0.45285 1.10687,-1.50757 2.27112,-2.34382 l 2.11682,-1.52046 h 44.29779 c 35.05945,0 44.33483,0.1111 44.47534,0.53269 0.0976,0.29298 0.38189,0.53269 0.63166,0.53269 0.65794,0 3.01272,2.56838 3.63243,3.96194 0.40995,0.92186 0.53007,9.9166 0.53007,39.6929 0,32.89612 -0.0882,38.53481 -0.60615,38.73355 -0.3533,0.13557 -0.51674,0.57448 -0.39181,1.0522 0.22788,0.87143 -1.20045,1.79952 -1.47979,0.96152 -0.0826,-0.2478 -0.34944,-0.45054 -0.59299,-0.45054 -0.25297,0 -0.19744,0.29566 0.12951,0.68962 0.49492,0.59634 0.4011,0.82662 -0.69358,1.70248 -0.69626,0.55708 -1.59019,1.01382 -1.98653,1.01499 -0.39633,10e-4 -0.83866,0.19312 -0.98293,0.42656 -0.35004,0.56637 -85.44416,0.54491 -85.44416,-0.0215 z m 80.75545,-2.13203 c 2.7715,-0.72502 4.04843,-1.32277 4.04843,-1.89515 0,-0.2958 0.38257,-0.63787 0.85015,-0.76014 0.46758,-0.12228 0.98095,-0.57612 1.14083,-1.00854 0.15987,-0.43242 0.41054,-0.88211 0.55704,-0.9993 0.1465,-0.11719 0.59196,-0.91324 0.98992,-1.769 0.66168,-1.42287 0.72356,-4.47624 0.72356,-35.70376 0,-37.62678 0.12409,-35.82281 -2.6621,-38.70157 -0.73724,-0.76174 -1.59048,-1.38499 -1.89607,-1.38499 -0.3056,0 -0.55713,-0.23971 -0.55896,-0.53269 -0.01,-1.54911 -1.29172,-1.59806 -41.85281,-1.59806 h -39.55547 l -1.80267,1.11665 c -0.99147,0.61416 -2.33993,1.71682 -2.99658,2.45036 -2.55848,2.85808 -2.44919,1.11306 -2.43332,38.85446 0.0159,37.80425 -0.11998,35.71908 2.50078,38.37661 2.29301,2.32519 3.25924,2.91602 5.60103,3.42497 3.10803,0.67549 74.80048,0.79612 77.34624,0.13015 z"
       id="path943"
       inkscape:connector-curvature="0"
       transform="matrix(0.26458333,0,0,0.26458333,0,87)" />
    <path
       style="opacity:1;fill:#000000;fill-opacity:1;stroke:none;stroke-width:0.32212922;stroke-miterlimit:4;stroke-dasharray:none;stroke-dashoffset:0;stroke-opacity:1"
       d="m 193.08858,389.27464 c -0.10866,-0.17579 32.67226,-0.31962 72.84649,-0.31962 40.17423,0 73.04407,0.14383 73.04408,0.31962 4e-5,0.41794 -145.63224,0.41794 -145.89057,0 z"
       id="path945"
       inkscape:connector-curvature="0"
       transform="matrix(0.26458333,0,0,0.26458333,0,87)" />
    <path
       style="opacity:1;fill:#000000;fill-opacity:1;stroke:none;stroke-width:0.32212922;stroke-miterlimit:4;stroke-dasharray:none;stroke-dashoffset:0;stroke-opacity:1"
       d="m 192.80969,387.27293 v -1.46902 l 72.38268,-0.0332 c 39.81048,-0.0183 72.69862,0.088 73.08475,0.23616 0.42811,0.16428 0.70206,0.75047 0.70206,1.50226 v 1.23286 h -73.08475 -73.08474 z"
       id="path947"
       inkscape:connector-curvature="0"
       transform="matrix(0.26458333,0,0,0.26458333,0,87)" />
    <path
       style="opacity:1;fill:#000000;fill-opacity:1;stroke:none;stroke-width:0.32212922;stroke-miterlimit:4;stroke-dasharray:none;stroke-dashoffset:0;stroke-opacity:1"
       d="m 180.87748,411.32791 v -1.27845 h 85.01695 85.01695 v 1.27845 1.27845 h -85.01695 -85.01695 z"
       id="path951"
       inkscape:connector-curvature="0"
       transform="matrix(0.26458333,0,0,0.26458333,0,87)" />
    <path
       style="opacity:1;fill:#000000;fill-opacity:1;stroke:none;stroke-width:0.32212922;stroke-miterlimit:4;stroke-dasharray:none;stroke-dashoffset:0;stroke-opacity:1"
       d="m 281.67278,452.68193 c -0.13299,-0.21518 0.0696,-0.56549 0.45018,-0.77848 0.38058,-0.21298 0.6217,-0.75213 0.53581,-1.1981 -0.14955,-0.77657 -0.72356,-0.81086 -13.57405,-0.81086 h -13.41789 l -0.13186,0.92588 c -0.0971,0.68196 0.12742,0.97541 0.8523,1.11388 0.85617,0.16355 0.82824,0.19555 -0.21475,0.24603 -1.10552,0.0535 -1.18851,-0.0499 -1.06538,-1.32695 l 0.13354,-1.38499 12.7845,-0.21307 c 9.29613,-0.15494 13.04613,-0.36252 13.74334,-0.76076 0.52736,-0.30122 0.95884,-0.63046 0.95884,-0.73163 0,-0.10117 -5.57659,-0.18449 -12.39243,-0.18516 -6.81584,-6.7e-4 -13.04829,-0.12426 -13.84988,-0.27464 -1.46234,-0.27433 -1.84134,-0.74331 -1.01396,-1.25465 0.24391,-0.15075 0.32658,-0.64243 0.18369,-1.09263 -0.30868,-0.97254 0.87725,-1.61111 1.61745,-0.87092 0.63217,0.63217 4.6881,0.6241 5.32278,-0.0106 0.37366,-0.37366 0.65182,-0.36178 1.14675,0.049 0.52728,0.4376 1.20056,0.43906 3.48719,0.008 2.63076,-0.49639 6.58827,-0.4093 11.87613,0.26136 1.59571,0.20238 1.65016,0.17492 0.85231,-0.42989 -0.70223,-0.53232 -2.55504,-0.64847 -10.52207,-0.65964 -5.92954,-0.008 -9.77051,0.14945 -9.93021,0.40786 -0.15969,0.25838 -0.66402,0.15699 -1.3036,-0.26208 -1.19716,-0.78441 -1.41136,-1.67406 -0.29739,-1.23512 1.37276,0.5409 26.12916,0.30505 26.80442,-0.25537 0.37201,-0.30874 0.45831,-0.66132 0.22016,-0.89947 -0.22356,-0.22356 -6.12873,-0.37144 -13.75693,-0.34452 l -13.36524,0.0472 -0.92511,1.15745 c -0.50882,0.6366 -1.05148,1.0323 -1.20592,0.87934 -0.37295,-0.36939 0.65464,-1.98049 1.47369,-2.31052 0.35661,-0.1437 5.60555,-0.23281 11.66429,-0.19803 10.08276,0.0579 11.06255,-5.6e-4 11.56648,-0.68972 0.43942,-0.60094 0.67534,-0.6494 1.16858,-0.24004 0.33991,0.28209 0.73624,0.39467 0.88074,0.25018 0.31492,-0.31493 3.81255,1.02936 4.16593,1.60114 0.42224,0.6832 1.3737,-2.89479 1.08046,-4.06312 l -0.2769,-1.10326 h -15.97251 c -8.78488,0 -16.11633,-0.0264 -16.29212,-0.0587 -0.17579,-0.0323 -0.56608,0.39918 -0.86732,0.95884 -0.54485,1.01224 -0.54708,1.01088 -0.42615,-0.26089 l 0.12156,-1.27845 17.57869,-0.0848 c 16.98338,-0.0819 17.57869,-0.0575 17.57869,0.72061 0,0.44298 -0.17151,0.91141 -0.38113,1.04097 -0.20963,0.12955 -0.48992,0.95588 -0.62288,1.83629 -0.74641,4.94254 -0.718,4.86978 -1.51636,3.88384 -0.6682,-0.8252 -0.77845,-0.84109 -1.41552,-0.20401 -0.42141,0.42141 -1.40085,0.69088 -2.51115,0.69088 -1.07735,0 -1.65504,0.15402 -1.41543,0.37737 0.22267,0.20756 1.42861,0.23976 2.67989,0.0716 2.15483,-0.28966 2.29619,-0.25019 2.67536,0.7471 0.46256,1.21662 0.16538,1.74638 -0.56816,1.01284 -0.27735,-0.27735 -0.88781,-0.50427 -1.35658,-0.50427 -0.6629,0 -0.73866,0.11364 -0.34092,0.51138 0.76366,0.76366 0.61908,1.52775 -0.34711,1.83441 -0.47217,0.14986 -0.73525,0.47187 -0.58463,0.71558 0.15063,0.24372 0.0105,0.60587 -0.31134,0.8048 -0.47489,0.29349 -0.43517,0.47139 0.2107,0.94366 0.51676,0.37787 0.70453,0.86989 0.53537,1.40287 -0.31604,0.99575 -1.83652,2.02628 -2.17694,1.47546 z m 2.2827,-5.94344 c 0.46495,-0.29447 0.36475,-0.51984 -0.4761,-1.07078 -0.93156,-0.61038 -2.64574,-0.6901 -13.68194,-0.63633 -9.96705,0.0486 -12.71649,0.1814 -13.09086,0.63248 -0.26065,0.31406 -0.35019,0.77119 -0.19899,1.01584 0.34133,0.55228 26.57998,0.60848 27.44789,0.0588 z"
       id="path953"
       inkscape:connector-curvature="0"
       transform="matrix(0.26458333,0,0,0.26458333,0,87)" />
    <path
       style="opacity:1;fill:#000000;fill-opacity:1;stroke:none;stroke-width:0.32212922;stroke-miterlimit:4;stroke-dasharray:none;stroke-dashoffset:0;stroke-opacity:1"
       d="m 252.24345,451.65309 c -0.15371,-1.02503 -0.046,-4.3859 0.23933,-7.46862 0.48033,-5.1893 0.6066,-5.69892 1.70279,-6.87239 l 1.18398,-1.26747 h 16.02273 16.02273 l -0.007,1.81114 c -0.01,2.70492 -0.36905,3.05214 -2.37688,2.29695 -2.66388,-1.00193 -4.04344,-1.20069 -4.6781,-0.67397 -0.39404,0.32703 -4.34802,0.55731 -11.99798,0.69878 -9.52054,0.17606 -11.53376,0.32099 -12.15601,0.87508 -0.76358,0.67993 -1.01638,1.81043 -0.40485,1.81043 0.18751,0 0.5231,-0.1567 0.74577,-0.34822 0.22593,-0.19432 0.82324,0.0895 1.35159,0.64233 l 0.94676,0.99054 -1.62956,-0.26057 c -1.61759,-0.25867 -1.63149,-0.24865 -1.89324,1.36436 -0.16049,0.989 -0.0827,1.73683 0.1989,1.91084 0.25443,0.15724 6.33749,0.43332 13.51792,0.61349 7.34292,0.18426 12.54466,0.46968 11.88824,0.65232 -0.6419,0.17859 -6.73052,0.46471 -13.53027,0.6358 l -12.3627,0.31109 v 1.43166 1.43166 h 13.17514 c 10.15266,0 13.2196,0.1222 13.36894,0.53269 0.1433,0.39388 0.39497,0.41422 0.96587,0.0781 1.3125,-0.77285 1.73983,-1.78262 1.15245,-2.72317 -0.56945,-0.91183 -0.28997,-2.16399 0.60329,-2.70294 0.31065,-0.18743 0.56482,-0.73531 0.56482,-1.2175 0,-0.62437 0.19402,-0.80227 0.67408,-0.61805 0.37074,0.14227 0.85016,0.25867 1.06538,0.25867 0.21521,0 0.39129,1.7259 0.39129,3.83535 v 3.83535 h -17.23297 -17.23296 z"
       id="path955"
       inkscape:connector-curvature="0"
       transform="matrix(0.26458333,0,0,0.26458333,0,87)" />
    <path
       style="opacity:1;fill:#000000;fill-opacity:1;stroke:none;stroke-width:0.32212922;stroke-miterlimit:4;stroke-dasharray:none;stroke-dashoffset:0;stroke-opacity:1"
       d="m 255.36852,499.0296 c 0.28126,-0.28126 0.51138,-1.29763 0.51138,-2.25859 0,-0.96097 0.2032,-1.95041 0.45154,-2.19876 0.30258,-0.30258 0.38016,-3.24777 0.23515,-8.92784 -0.24528,-9.60809 -0.58182,-13.83298 -1.14874,-14.4211 -0.21464,-0.22267 -0.39025,-1.14617 -0.39025,-2.05223 0,-0.90607 -0.23016,-2.06626 -0.51148,-2.57821 -0.28131,-0.51195 -0.62701,-1.9376 -0.76822,-3.16811 l -0.25673,-2.23729 h 17.38807 17.38807 v 1.61937 c 0,0.89065 0.17409,1.80155 0.38687,2.02421 0.21277,0.22267 0.48853,1.36368 0.61278,2.5356 0.42053,3.96623 1.01845,7.30313 1.45641,8.12799 0.23979,0.45164 0.45397,2.1011 0.47595,3.66546 0.022,1.56437 0.2597,3.32658 0.52827,3.91603 0.3883,0.85221 0.3465,1.42615 -0.20408,2.80218 -0.60367,1.50872 -0.61092,1.73047 -0.0566,1.73047 0.7362,0 0.87067,1.72539 0.1877,2.40836 -0.24644,0.24644 -0.45382,1.64921 -0.46084,3.11725 -0.0102,2.14052 -0.15538,2.70647 -0.7328,2.85747 -0.55945,0.1463 -0.68428,0.56304 -0.55977,1.8687 l 0.16025,1.68042 h -17.60214 c -13.69056,0 -17.48851,-0.11364 -17.09077,-0.51138 z m 32.68572,-5.22936 c 1.19724,-0.43132 1.41921,-0.61967 0.74576,-0.63281 -0.67074,-0.0131 -0.95884,-0.27656 -0.95884,-0.8769 0,-0.84475 -0.21538,-0.85645 -13.73763,-0.74577 -12.8637,0.10529 -13.74707,0.16147 -13.88592,0.8831 -0.38769,2.01483 -0.48797,1.99972 13.22761,1.9929 10.15058,-0.005 13.26818,-0.13746 14.60902,-0.62052 z m -13.63681,-4.48686 c 10.83619,0.16931 13.82764,0.0976 14.56603,-0.34922 0.924,-0.55914 0.92452,-0.56702 0.0911,-1.40045 -0.79597,-0.79597 -1.4989,-0.83945 -13.96683,-0.86399 l -13.12868,-0.0258 -1.13189,1.049 c -1.14502,1.06117 -1.62627,2.46606 -0.5992,1.74921 0.29298,-0.20449 6.66925,-0.27591 14.16949,-0.15872 z m -1.49152,-4.69832 c 5.50799,-0.0329 11.12713,-0.1657 12.48699,-0.29517 2.21421,-0.21081 2.45902,-0.32954 2.34382,-1.1367 -0.12753,-0.89358 -0.24618,-0.90227 -13.87197,-1.01646 l -13.74335,-0.11518 v 0.98878 c 0,1.29098 0.84553,2.10414 1.9162,1.84285 0.46958,-0.1146 5.36032,-0.23525 10.86831,-0.26812 z m 13.85168,-4.67767 c 0.82973,-0.31546 1.08716,-0.67685 0.98658,-1.38499 l -0.13608,-0.95815 -13.71277,-0.1124 c -13.52411,-0.11086 -13.7166,-0.10031 -13.99162,0.76621 -0.64567,2.03432 -0.13363,2.11617 13.23972,2.11617 7.30973,0 12.95722,-0.17707 13.61417,-0.42684 z m 0.52201,-3.66598 c -0.14161,-0.14161 -0.50916,-0.15675 -0.81679,-0.0337 -0.33996,0.13604 -0.23898,0.23702 0.25746,0.25747 0.44924,0.0185 0.70093,-0.0822 0.55933,-0.22382 z m -0.36063,-1.40728 c 0.496,-0.31414 0.48417,-0.5234 -0.0747,-1.32126 -0.66377,-0.94766 -0.66903,-0.94799 -14.00321,-0.89332 -13.96937,0.0573 -14.95013,0.18972 -14.28286,1.9286 0.22765,0.59324 1.8752,0.67151 14.01469,0.66575 7.56619,-0.004 14.02192,-0.17449 14.34605,-0.37977 z m -0.63386,-4.6783 c 0.65645,-0.72537 0.65578,-0.82039 -0.01,-1.37309 -0.57093,-0.47414 -3.37046,-0.61477 -13.89319,-0.6979 -12.74043,-0.10065 -14.81767,0.0669 -14.81767,1.19502 0,0.23194 0.47942,0.60398 1.06538,0.82676 0.58596,0.22278 1.06527,0.55363 1.06514,0.73522 -1.3e-4,0.18159 5.82391,0.27686 12.9423,0.21172 11.90975,-0.10898 12.99881,-0.18062 13.64779,-0.89773 z m -0.16855,-4.52378 c 0.8131,-0.46482 0.88879,-0.6126 0.31961,-0.62413 -0.41017,-0.008 -0.74576,-0.2991 -0.74576,-0.6462 0,-0.34711 -0.43148,-0.7391 -0.95884,-0.87108 -1.40756,-0.35227 -27.04152,-0.0451 -27.41444,0.32847 -0.17447,0.17479 -0.0984,0.79804 0.16901,1.38499 l 0.48624,1.06717 13.5394,-0.0151 c 10.93461,-0.0122 13.74437,-0.13227 14.60478,-0.62412 z"
       id="path957"
       inkscape:connector-curvature="0"
       transform="matrix(0.26458333,0,0,0.26458333,0,87)" />
    <g
       id="g1034"
       transform="matrix(0.00907484,0,0,-0.00907484,2.9900664,171.871)"
       style="fill:none;fill-opacity:1;stroke:#ffffff;stroke-width:133.22549438;stroke-miterlimit:4;stroke-dasharray:none;stroke-opacity:1">
      <path
         id="path1030"
         d="m 9620,7641 c -69,-21 -130,-73 -166,-141 -18,-34 -19,-144 -19,-3675 0,-3531 1,-3641 19,-3675 26,-49 74,-98 121,-123 l 40,-22 h 1500 1500 l 40,22 c 47,25 95,74 121,123 18,34 19,144 19,3675 0,3531 -1,3641 -19,3675 -26,49 -74,98 -121,123 l -40,22 -1485,2 c -817,1 -1496,-2 -1510,-6 z m 2384,-823 c 9,-12 16,-32 16,-43 0,-11 -7,-31 -16,-43 l -15,-22 h -939 -939 l -15,22 c -9,12 -16,32 -16,43 0,11 7,31 16,43 l 15,22 h 939 939 z m 0,-320 c 22,-31 20,-64 -4,-88 -20,-20 -33,-20 -950,-20 -917,0 -930,0 -950,20 -24,24 -26,57 -4,88 l 15,22 h 939 939 z m -203,-610 c 52,-15 117,-73 140,-122 22,-49 25,-143 6,-189 -65,-155 -273,-193 -389,-70 -61,64 -78,171 -41,253 50,110 168,163 284,128 z m 147,-1400 c 7,-7 12,-29 12,-49 0,-74 74,-69 -961,-69 -916,0 -929,0 -949,20 -22,22 -26,60 -10,91 10,19 32,19 953,19 720,0 946,-3 955,-12 z m 0,-390 c 7,-7 12,-29 12,-49 0,-74 74,-69 -961,-69 -916,0 -929,0 -949,20 -22,22 -26,60 -10,91 10,19 32,19 953,19 720,0 946,-3 955,-12 z m 0,-390 c 7,-7 12,-29 12,-49 0,-74 64,-69 -967,-69 -910,0 -923,0 -943,20 -22,22 -26,60 -10,91 10,19 32,19 953,19 720,0 946,-3 955,-12 z m 0,-390 c 7,-7 12,-29 12,-49 0,-74 64,-69 -967,-69 -910,0 -923,0 -943,20 -22,22 -26,60 -10,91 10,19 32,19 953,19 720,0 946,-3 955,-12 z m 222,-1329 c 21,-12 47,-38 59,-59 20,-37 21,-49 21,-432 0,-393 0,-395 -22,-428 -13,-18 -36,-43 -51,-54 -27,-20 -42,-21 -315,-24 -282,-3 -288,-2 -332,20 -33,17 -51,35 -67,68 -23,43 -23,50 -23,415 0,211 4,385 10,404 5,19 20,45 32,59 45,49 63,51 367,52 270,0 285,-1 321,-21 z"
         inkscape:connector-curvature="0"
         style="fill:none;fill-opacity:1;stroke:#ffffff;stroke-width:133.22549438;stroke-miterlimit:4;stroke-dasharray:none;stroke-opacity:1" />
      <path
         id="path1032"
         d="M 109,7597 C 80,7581 55,7557 35,7525 L 5,7477 2,4676 C -1,1590 -5,1830 60,1763 c 67,-68 -94,-63 1919,-63 1617,0 1821,-2 1821,-15 0,-15 -78,-1007 -82,-1055 l -3,-25 -677,-5 c -813,-6 -733,11 -733,-156 V 336 l 34,-23 34,-23 h 2024 c 2206,0 2081,-3 2103,55 14,36 13,168 -1,199 -26,55 -32,56 -724,56 -598,0 -635,1 -635,18 0,9 -18,240 -40,512 -22,272 -40,512 -40,533 v 37 h 1818 c 1736,0 1819,1 1857,19 58,26 101,80 115,143 8,39 10,779 8,2833 -3,2568 -4,2782 -20,2810 -20,38 -63,78 -105,99 -29,15 -392,16 -4306,16 H 153 Z M 8635,4660 V 1985 l -4207,-3 -4208,-2 v 2680 2680 l 4208,-2 4207,-3 z"
         inkscape:connector-curvature="0"
         style="fill:none;fill-opacity:1;stroke:#ffffff;stroke-width:133.22549438;stroke-miterlimit:4;stroke-dasharray:none;stroke-opacity:1" />
    </g>
    <g
       id="g1119"
       transform="matrix(0.08938859,0,0,0.08938859,5.4120638,183.66219)"
       style="fill:none;fill-opacity:1;stroke:#ffffff;stroke-width:11.18710995;stroke-miterlimit:4;stroke-dasharray:none;stroke-opacity:1">
      <path
         id="path1099"
         d="m 837.83203,1047.2227 h -0.57812 c -13.48438,0 -24.41407,10.9414 -24.41407,24.414 0,13.4883 10.92969,24.4141 24.41407,24.4141 h 0.57812 c 13.48438,0 24.41406,-10.9258 24.41406,-24.4141 0,-13.4726 -10.92968,-24.414 -24.41406,-24.414 z m 0,0"
         inkscape:connector-curvature="0"
         style="fill:none;fill-opacity:1;stroke:#ffffff;stroke-width:11.18710995;stroke-miterlimit:4;stroke-dasharray:none;stroke-opacity:1" />
      <path
         id="path1101"
         d="M 1008.1602,1047.2227 H 907.97656 c -13.48828,0 -24.41406,10.9218 -24.41406,24.414 0,13.4766 10.92578,24.4141 24.41406,24.4141 h 100.18364 c 13.4765,0 24.414,-10.9375 24.414,-24.4141 0,-13.4922 -10.9375,-24.414 -24.414,-24.414 z m 0,0"
         inkscape:connector-curvature="0"
         style="fill:none;fill-opacity:1;stroke:#ffffff;stroke-width:11.18710995;stroke-miterlimit:4;stroke-dasharray:none;stroke-opacity:1" />
      <path
         id="path1103"
         d="m 157.97656,632.18359 h 0.65625 c 13.49219,0 24.41406,-10.9375 24.41406,-24.41406 0,-13.49219 -10.92187,-24.41406 -24.41406,-24.41406 h -0.65625 c -13.47656,0 -24.41406,10.92187 -24.41406,24.41406 0,13.47656 10.9375,24.41406 24.41406,24.41406 z m 0,0"
         inkscape:connector-curvature="0"
         style="fill:none;fill-opacity:1;stroke:#ffffff;stroke-width:11.18710995;stroke-miterlimit:4;stroke-dasharray:none;stroke-opacity:1" />
      <path
         id="path1105"
         d="M 1183.9414,583.35547 H 914.32422 V 291.02734 c 0,-56.54687 -46.00391,-102.53906 -102.53906,-102.53906 H 799.6875 v -13.51953 c 0,-0.0742 0,-0.15625 0,-0.24219 v -0.0391 c 0,-97.753906 -79.53125,-177.269531 -177.26953,-177.269531 -97.74219,0 -177.26953,79.515625 -177.26953,177.269531 v 13.78516 h -12.10157 c -56.53515,0 -102.53906,46.00781 -102.53906,102.53906 v 292.34375 h -74.30078 c -13.49219,0 -24.41406,10.92187 -24.41406,24.41406 0,13.47656 10.92187,24.41406 24.41406,24.41406 h 927.73437 c 7.9414,0 14.6484,6.70313 14.6484,14.64844 0,7.93359 -6.707,14.64844 -14.6484,14.64844 H 60.894531 c -7.945312,0 -14.648437,-6.71485 -14.648437,-14.64844 0,-7.94531 6.703125,-14.64844 14.648437,-14.64844 h 26.9375 c 13.492189,0 24.414059,-10.9375 24.414059,-24.41406 0,-13.49219 -10.92187,-24.41406 -24.414059,-24.41406 h -26.9375 c -35.003906,0 -63.476562,28.47265 -63.476562,63.47656 0,35 28.472656,63.47656 63.476562,63.47656 v 473.63285 c 0,35 28.472657,63.4766 63.476559,63.4766 35,0 63.47657,-28.4766 63.47657,-63.4766 v -14.6484 h 869.14064 v 14.6484 c 0,35 28.4726,63.4766 63.4765,63.4766 35,0 63.4766,-28.4766 63.4766,-63.4766 V 710.30859 c 35,0 63.4766,-28.47656 63.4766,-63.47656 0,-35.00391 -28.4766,-63.47656 -63.4766,-63.47656 z M 750.85937,251.10937 c 0,35.875 -14.80468,68.33594 -38.58203,91.65235 -1.00781,0.8125 -1.95312,1.72656 -2.82422,2.70312 -22.89843,21.14453 -53.48046,34.09375 -87.03515,34.09375 -33.5625,0 -64.12891,-12.94922 -87.03516,-34.10156 -0.87109,-0.97656 -1.8164,-1.88672 -2.82422,-2.69531 -23.78125,-23.31641 -38.58203,-55.77735 -38.58203,-91.65235 v -40.20312 c 10.64453,2.46875 21.5586,3.58203 32.52735,3.58203 47.65234,0 96.60937,-20.80469 130.63281,-41.54687 26.46875,22.22265 61.25781,33.8164 93.72265,31.85156 z M 513.19922,390.59375 c 30.13281,23.63281 68.04687,37.78125 109.21875,37.78125 41.1875,0 79.08594,-14.14844 109.21484,-37.78125 74.50781,37.45312 124.33594,110.22656 132.60547,192.76172 H 380.59766 C 388.875,500.82031 438.69141,428.04687 513.19922,390.59375 Z M 811.78516,237.31641 c 29.61328,0 53.71093,24.08203 53.71093,53.71093 v 155.00391 c -24.9375,-37.49609 -58.55078,-69.23438 -98.8164,-92.08984 20.74218,-29.03125 33.00781,-64.51563 33.00781,-102.83203 V 237.31641 Z M 622.41797,46.246094 c 64.45703,0 117.94922,47.71875 127.0625,109.699216 -22.78516,2.01172 -51.30078,-7.16015 -70.64063,-30.01953 -8.21484,-9.71875 -22.51953,-11.48437 -32.86328,-4.08203 -37.10937,26.60156 -104.77344,56.12109 -151.15625,38.30859 C 502.0625,96.148438 556.50391,46.246094 622.41797,46.246094 Z M 433.04687,237.31641 h 12.10157 v 13.79296 c 0,38.31641 12.26172,73.80079 33.00781,102.83204 -40.25781,22.85546 -73.87891,54.59375 -98.82031,92.08984 V 291.02734 c 0,-29.6289 24.10156,-53.71093 53.71093,-53.71093 z M 139.01953,1183.9414 c 0,7.9414 -6.70703,14.6484 -14.64844,14.6484 -7.93359,0 -14.64843,-6.707 -14.64843,-14.6484 V 710.30859 h 29.29687 z m 48.82813,-63.4766 V 710.30859 h 869.14064 v 410.15621 z m 947.26564,63.4766 c 0,7.9414 -6.7149,14.6484 -14.6485,14.6484 -7.9453,0 -14.6484,-6.707 -14.6484,-14.6484 V 710.30859 h 29.2969 z m 0,0"
         inkscape:connector-curvature="0"
         style="fill:none;fill-opacity:1;stroke:#ffffff;stroke-width:11.18710995;stroke-miterlimit:4;stroke-dasharray:none;stroke-opacity:1" />
    </g>
    <path
       style="fill:none;fill-rule:evenodd;stroke:#ffffff;stroke-width:1.80879104;stroke-linecap:butt;stroke-linejoin:miter;stroke-miterlimit:4;stroke-dasharray:none;stroke-opacity:1"
       d="M 148.5,87.139391 V 297.90202"
       id="path1123"
       inkscape:connector-curvature="0" />
    <text
       xml:space="preserve"
       style="font-style:normal;font-variant:normal;font-weight:bold;font-stretch:normal;font-size:5.39801455px;line-height:125%;font-family:Arial;-inkscape-font-specification:'Arial Bold';font-variant-ligatures:normal;font-variant-caps:normal;font-variant-numeric:normal;font-feature-settings:normal;text-align:center;writing-mode:lr-tb;text-anchor:middle;opacity:1;fill:none;fill-opacity:1;stroke:#ffffff;stroke-width:1.76499999;stroke-miterlimit:4;stroke-dasharray:none;stroke-dashoffset:0;stroke-opacity:1"
       x="61.19146"
       y="266.7034"
       id="text1129"><tspan
         sodipodi:role="line"
         id="tspan1127"
         x="61.19146"
         y="266.7034"
         style="fill:#ffffff;fill-opacity:1;stroke:none;stroke-width:1.76499999">icons</tspan><tspan
         sodipodi:role="line"
         x="61.19146"
         y="273.45093"
         style="fill:#ffffff;fill-opacity:1;stroke:none;stroke-width:1.76499999"
         id="tspan1131">from www.flaticon.com</tspan></text>
    <g
       id="g1348"
       transform="matrix(0.1544141,0,0,0.1544141,207.21504,152.46991)"
       style="stroke:#ffffff;stroke-width:6.47609234;stroke-miterlimit:4;stroke-dasharray:none;stroke-opacity:1">
      <g
         id="g1255"
         style="stroke:#ffffff;stroke-width:6.47609234;stroke-miterlimit:4;stroke-dasharray:none;stroke-opacity:1">
	<g
   id="g1253"
   style="stroke:#ffffff;stroke-width:6.47609234;stroke-miterlimit:4;stroke-dasharray:none;stroke-opacity:1">
		<path
   id="path1251"
   d="m 275.138,345.48 -38.529,-16.819 -21.076,-21.076 c -1.375,-1.375 -3.231,-2.156 -5.173,-2.19 v -12.952 c 18.055,-11.799 31.25,-30.659 35.407,-53.138 0.006,-0.007 0.013,-0.015 0.02,-0.021 2.135,0.126 4.297,-0.063 6.425,-0.567 9.912,-2.345 17.105,-11.851 17.105,-22.601 v -5.743 c 0,-7.948 -3.99,-15.09 -10.151,-19.21 1.84,-7.199 2.781,-14.566 2.781,-21.983 0,-32.571 -17.645,-61.253 -44.226,-77.673 -0.158,-28.383 -23.291,-51.427 -51.71,-51.427 -28.42,0 -51.553,23.044 -51.711,51.427 -26.58,16.42 -44.225,45.102 -44.225,77.672 0,7.396 0.936,14.744 2.765,21.923 -6.157,4.099 -10.135,11.271 -10.135,19.356 v 5.656 c 0,10.75 7.193,20.255 17.104,22.601 2.127,0.503 4.286,0.693 6.425,0.567 0.007,0.007 0.014,0.015 0.02,0.021 4.157,22.479 17.352,41.339 35.407,53.138 v 12.951 c -1.876,0.033 -3.742,0.76 -5.173,2.191 L 95.412,328.659 56.886,345.48 c -19.429,8.481 -31.879,28.409 -30.981,49.589 l 4.651,109.749 c 0.171,4.03 3.492,7.183 7.488,7.183 0.107,0 0.215,-0.002 0.323,-0.007 4.139,-0.175 7.351,-3.672 7.176,-7.811 L 40.892,394.434 c -0.311,-7.331 1.645,-14.442 5.315,-20.512 l 21.021,25.226 c 6.59,7.907 10.219,17.931 10.219,28.224 V 504.5 c 0,4.142 3.358,7.5 7.5,7.5 4.142,0 7.5,-3.358 7.5,-7.5 v -77.128 c 0,-13.795 -4.864,-27.229 -13.695,-37.827 L 56.508,362.853 c 1.984,-1.401 4.107,-2.633 6.38,-3.625 l 33.821,-14.764 23.86,38.73 c 2.281,3.702 6.053,6.213 10.348,6.89 0.773,0.122 1.548,0.182 2.318,0.182 3.512,0 6.933,-1.245 9.646,-3.56 l 15.632,-13.339 V 504.5 c 0,4.142 3.358,7.5 7.5,7.5 4.142,0 7.5,-3.358 7.5,-7.5 V 373.366 l 15.631,13.339 c 2.713,2.315 6.133,3.56 9.646,3.56 0.771,0 1.546,-0.06 2.318,-0.182 4.295,-0.676 8.067,-3.188 10.348,-6.89 l 23.86,-38.73 33.821,14.764 c 2.273,0.992 4.396,2.224 6.38,3.625 l -22.244,26.692 c -8.832,10.598 -13.695,24.032 -13.695,37.827 V 504.5 c 0,4.142 3.358,7.5 7.5,7.5 4.142,0 7.5,-3.358 7.5,-7.5 v -77.128 c 0,-10.292 3.629,-20.316 10.219,-28.224 l 21.021,-25.226 c 3.67,6.07 5.625,13.181 5.315,20.512 l -4.651,109.749 c -0.175,4.138 3.037,7.635 7.176,7.811 0.108,0.005 0.215,0.007 0.323,0.007 3.996,0 7.317,-3.153 7.488,-7.183 l 4.651,-109.749 c 0.897,-21.18 -11.553,-41.108 -30.982,-49.589 z M 166.012,55.081 c 17.424,0 32.041,12.203 35.781,28.509 -11.063,-4.292 -23.139,-6.661 -35.781,-6.661 -12.642,0 -24.719,2.369 -35.782,6.661 3.74,-16.306 18.358,-28.509 35.782,-28.509 z m -65.021,181.417 c -1.355,-7.378 -8.188,-12.736 -15.553,-12.193 -0.707,0.052 -1.438,-0.01 -2.173,-0.184 -3.169,-0.75 -5.559,-4.191 -5.559,-8.004 v -5.656 c 0,-3.832 2.579,-7.287 5.871,-7.864 2.767,-0.486 5.424,0.531 7.105,2.723 1.398,1.823 3.261,3.125 5.389,3.768 3.113,0.939 6.55,0.389 9.192,-1.476 6.096,-4.304 11.263,-9.762 15.356,-16.221 2.217,-3.499 1.178,-8.133 -2.32,-10.35 -3.501,-2.218 -8.133,-1.177 -10.35,2.321 -2.334,3.683 -5.126,6.918 -8.329,9.656 -3.422,-3.013 -7.674,-4.883 -12.186,-5.394 -1.559,-6.042 -2.359,-12.223 -2.359,-18.443 0,-42.596 36.308,-77.251 80.936,-77.251 44.628,0 80.936,34.655 80.936,77.251 0,6.211 -0.797,12.384 -2.352,18.417 -2.204,0.157 -4.458,0.523 -6.522,1.073 l -6.067,-4.989 c -2.901,-2.386 -6.544,-3.58 -10.25,-3.36 -6.757,0.399 -24.65,0.866 -44.829,-3.391 -24.939,-5.261 -44.043,-15.659 -56.782,-30.904 -2.656,-3.179 -7.386,-3.602 -10.564,-0.946 -3.179,2.656 -3.602,7.386 -0.946,10.564 14.949,17.89 36.884,29.99 65.196,35.963 21.839,4.607 41.237,4.127 48.69,3.694 l 9.352,7.69 c 2.422,1.992 5.823,2.268 8.534,0.691 1.356,-0.76 5.977,-1.479 8.019,-1.073 3.358,0.668 5.891,4.005 5.891,7.763 v 5.743 c 0,3.813 -2.39,7.254 -5.559,8.004 -0.735,0.174 -1.466,0.236 -2.173,0.184 -7.358,-0.542 -14.197,4.815 -15.553,12.194 -5.763,31.377 -33.108,54.151 -65.021,54.151 -31.913,0 -59.257,-22.774 -65.02,-54.151 z m 32.268,138.698 -24.08,-39.086 12.615,-12.615 33.175,33.175 z M 166.012,346.5 136.663,317.152 v -17.004 c 9.145,3.551 19.049,5.501 29.349,5.501 10.3,0 20.204,-1.95 29.348,-5.501 v 17.004 z m 32.753,28.696 -21.709,-18.526 33.175,-33.175 12.615,12.615 z"
   inkscape:connector-curvature="0"
   style="stroke:#ffffff;stroke-width:6.47609234;stroke-miterlimit:4;stroke-dasharray:none;stroke-opacity:1" />

	</g>

</g>
      <g
         id="g1261"
         style="stroke:#ffffff;stroke-width:6.47609234;stroke-miterlimit:4;stroke-dasharray:none;stroke-opacity:1">
	<g
   id="g1259"
   style="stroke:#ffffff;stroke-width:6.47609234;stroke-miterlimit:4;stroke-dasharray:none;stroke-opacity:1">
		<path
   id="path1257"
   d="m 136.533,423.303 h -22.109 c -4.142,0 -7.5,3.358 -7.5,7.5 0,4.142 3.358,7.5 7.5,7.5 h 22.109 c 4.142,0 7.5,-3.358 7.5,-7.5 0,-4.142 -3.358,-7.5 -7.5,-7.5 z"
   inkscape:connector-curvature="0"
   style="stroke:#ffffff;stroke-width:6.47609234;stroke-miterlimit:4;stroke-dasharray:none;stroke-opacity:1" />

	</g>

</g>
      <g
         id="g1267"
         style="stroke:#ffffff;stroke-width:6.47609234;stroke-miterlimit:4;stroke-dasharray:none;stroke-opacity:1">
	<g
   id="g1265"
   style="stroke:#ffffff;stroke-width:6.47609234;stroke-miterlimit:4;stroke-dasharray:none;stroke-opacity:1">
		
	</g>

</g>
      <g
         id="g1273"
         style="stroke:#ffffff;stroke-width:6.47609234;stroke-miterlimit:4;stroke-dasharray:none;stroke-opacity:1">
	<g
   id="g1271"
   style="stroke:#ffffff;stroke-width:6.47609234;stroke-miterlimit:4;stroke-dasharray:none;stroke-opacity:1">
		
	</g>

</g>
      <g
         id="g1279"
         style="stroke:#ffffff;stroke-width:6.47609234;stroke-miterlimit:4;stroke-dasharray:none;stroke-opacity:1">
	<g
   id="g1277"
   style="stroke:#ffffff;stroke-width:6.47609234;stroke-miterlimit:4;stroke-dasharray:none;stroke-opacity:1">
		
	</g>

</g>
      <g
         id="g1281"
         style="stroke:#ffffff;stroke-width:6.47609234;stroke-miterlimit:4;stroke-dasharray:none;stroke-opacity:1">
</g>
      <g
         id="g1283"
         style="stroke:#ffffff;stroke-width:6.47609234;stroke-miterlimit:4;stroke-dasharray:none;stroke-opacity:1">
</g>
      <g
         id="g1285"
         style="stroke:#ffffff;stroke-width:6.47609234;stroke-miterlimit:4;stroke-dasharray:none;stroke-opacity:1">
</g>
      <g
         id="g1287"
         style="stroke:#ffffff;stroke-width:6.47609234;stroke-miterlimit:4;stroke-dasharray:none;stroke-opacity:1">
</g>
      <g
         id="g1289"
         style="stroke:#ffffff;stroke-width:6.47609234;stroke-miterlimit:4;stroke-dasharray:none;stroke-opacity:1">
</g>
      <g
         id="g1291"
         style="stroke:#ffffff;stroke-width:6.47609234;stroke-miterlimit:4;stroke-dasharray:none;stroke-opacity:1">
</g>
      <g
         id="g1293"
         style="stroke:#ffffff;stroke-width:6.47609234;stroke-miterlimit:4;stroke-dasharray:none;stroke-opacity:1">
</g>
      <g
         id="g1295"
         style="stroke:#ffffff;stroke-width:6.47609234;stroke-miterlimit:4;stroke-dasharray:none;stroke-opacity:1">
</g>
      <g
         id="g1297"
         style="stroke:#ffffff;stroke-width:6.47609234;stroke-miterlimit:4;stroke-dasharray:none;stroke-opacity:1">
</g>
      <g
         id="g1299"
         style="stroke:#ffffff;stroke-width:6.47609234;stroke-miterlimit:4;stroke-dasharray:none;stroke-opacity:1">
</g>
      <g
         id="g1301"
         style="stroke:#ffffff;stroke-width:6.47609234;stroke-miterlimit:4;stroke-dasharray:none;stroke-opacity:1">
</g>
      <g
         id="g1303"
         style="stroke:#ffffff;stroke-width:6.47609234;stroke-miterlimit:4;stroke-dasharray:none;stroke-opacity:1">
</g>
      <g
         id="g1305"
         style="stroke:#ffffff;stroke-width:6.47609234;stroke-miterlimit:4;stroke-dasharray:none;stroke-opacity:1">
</g>
      <g
         id="g1307"
         style="stroke:#ffffff;stroke-width:6.47609234;stroke-miterlimit:4;stroke-dasharray:none;stroke-opacity:1">
</g>
      <g
         id="g1309"
         style="stroke:#ffffff;stroke-width:6.47609234;stroke-miterlimit:4;stroke-dasharray:none;stroke-opacity:1">
</g>
    </g>
    <path
       style="fill:none;fill-rule:evenodd;stroke:#ffffff;stroke-width:1;stroke-linecap:butt;stroke-linejoin:miter;stroke-miterlimit:4;stroke-dasharray:none;stroke-opacity:1;marker-start:url(#Arrow1Mstart);marker-mid:url(#Arrow1Lend);marker-end:url(#Arrow1Mend)"
       d="m 119.9107,136.26864 94.90773,54.795"
       id="path1350"
       inkscape:connector-curvature="0" />
    <path
       inkscape:connector-curvature="0"
       id="path1841"
       d="M 212.17288,193.30238 93.873743,227.73936"
       style="fill:none;fill-rule:evenodd;stroke:#ffffff;stroke-width:1.06633389;stroke-linecap:butt;stroke-linejoin:miter;stroke-miterlimit:4;stroke-dasharray:none;stroke-opacity:1;marker-start:url(#marker1845);marker-mid:url(#marker1885);marker-end:url(#marker1931)" />
    <text
       xml:space="preserve"
       style="font-style:normal;font-variant:normal;font-weight:bold;font-stretch:normal;font-size:8.13516712px;line-height:125%;font-family:Arial;-inkscape-font-specification:'Arial Bold';font-variant-ligatures:normal;font-variant-caps:normal;font-variant-numeric:normal;font-feature-settings:normal;text-align:center;writing-mode:lr-tb;text-anchor:middle;opacity:1;fill:#ffffff;fill-opacity:1;stroke:#ffffff;stroke-width:1.50706661;stroke-miterlimit:4;stroke-dasharray:none;stroke-dashoffset:0;stroke-opacity:1"
       x="232.68286"
       y="262.16705"
       id="text3639"><tspan
         sodipodi:role="line"
         id="tspan3637"
         x="232.68286"
         y="262.16705"
         style="font-style:normal;font-variant:normal;font-weight:normal;font-stretch:normal;font-family:Arial;-inkscape-font-specification:Arial;fill:#ffffff;fill-opacity:1;stroke:none;stroke-width:1.50706661;stroke-miterlimit:4;stroke-dasharray:none">Can a machine be linguistically</tspan><tspan
         sodipodi:role="line"
         x="232.68286"
         y="272.336"
         style="font-style:normal;font-variant:normal;font-weight:normal;font-stretch:normal;font-family:Arial;-inkscape-font-specification:Arial;fill:#ffffff;fill-opacity:1;stroke:none;stroke-width:1.50706661;stroke-miterlimit:4;stroke-dasharray:none"
         id="tspan3643">indistinguishable</tspan><tspan
         sodipodi:role="line"
         x="232.68286"
         y="282.50497"
         style="font-style:normal;font-variant:normal;font-weight:normal;font-stretch:normal;font-family:Arial;-inkscape-font-specification:Arial;fill:#ffffff;fill-opacity:1;stroke:none;stroke-width:1.50706661;stroke-miterlimit:4;stroke-dasharray:none"
         id="tspan3641">from a human?</tspan></text>
  </g>
</svg>
